<svg xmlns="http://www.w3.org/2000/svg" viewBox="0 0 500 500"><g id="freepik--background-complete--inject-2"><g><g><g><path d="M443.92,314.061h-180.746c-3.232,0-5.862-2.63-5.862-5.862V44.926c0-3.232,2.63-5.862,5.862-5.862h180.746c3.232,0,5.862,2.629,5.862,5.862V308.199c0,3.233-2.63,5.862-5.862,5.862ZM263.174,39.314c-3.095,0-5.612,2.518-5.612,5.612V308.199c0,3.095,2.518,5.612,5.612,5.612h180.746c3.095,0,5.612-2.517,5.612-5.612V44.926c0-3.094-2.518-5.612-5.612-5.612h-180.746Z" style="fill:#e0e0e0;"></path><path d="M235.493,314.061H54.746c-3.232,0-5.862-2.63-5.862-5.862V44.926c0-3.232,2.629-5.862,5.862-5.862H235.493c3.232,0,5.862,2.629,5.862,5.862V308.199c0,3.233-2.63,5.862-5.862,5.862ZM54.746,39.314c-3.094,0-5.612,2.518-5.612,5.612V308.199c0,3.095,2.518,5.612,5.612,5.612H235.493c3.095,0,5.612-2.517,5.612-5.612V44.926c0-3.094-2.518-5.612-5.612-5.612H54.746Z" style="fill:#e0e0e0;"></path></g><rect x="0" y="375.131" width="500" height=".25" style="fill:#e0e0e0;"></rect></g><rect x="51.672" y="389.395" width="16.06" height=".25" style="fill:#e0e0e0;"></rect><rect x="170.352" y="386.685" width="53.53" height=".25" style="fill:#e0e0e0;"></rect><rect x="68.732" y="398.685" width="36.25" height=".25" style="fill:#e0e0e0;"></rect><rect x="378.352" y="386.555" width="43.19" height=".25" style="fill:#e0e0e0;"></rect><rect x="430.452" y="386.555" width="6.33" height=".25" style="fill:#e0e0e0;"></rect><rect x="316.212" y="392.785" width="53.89" height=".25" style="fill:#e0e0e0;"></rect></g><path d="M283.488,122.372c-3.139,7.648-4.689,15.681-4.794,23.677l-12.018,3.527,4.598,23.708,12.467-1.221c3.085,7.375,7.527,14.245,13.298,20.167l-5.987,10.961,20.016,13.512,7.927-9.65c7.649,3.138,15.682,4.689,23.677,4.794l3.528,12.019,23.707-4.6-1.221-12.465c7.376-3.088,14.247-7.529,20.168-13.3l10.961,5.987,13.512-20.016-9.65-7.928c3.138-7.649,4.689-15.682,4.793-23.676l12.017-3.528-4.597-23.708-12.466,1.221c-3.087-7.375-7.529-14.245-13.3-20.166l5.987-10.961-20.016-13.512-7.927,9.65c-7.65-3.139-15.683-4.691-23.677-4.796l-3.528-12.018-23.708,4.6,1.222,12.465c-7.376,3.086-14.246,7.527-20.167,13.298l-10.961-5.987-13.513,20.017,9.651,7.928Zm78.387-2.509c14.963,10.102,18.906,30.423,8.804,45.388-10.103,14.965-30.425,18.906-45.388,8.805-14.965-10.103-18.906-30.423-8.804-45.388,10.103-14.965,30.422-18.907,45.388-8.804Z" style="fill:#ebebeb;"></path><path d="M136.1,58.522c-2.824,4.301-4.723,9.025-5.735,13.898l-7.761,.731v15.03l7.761,.731c1.011,4.871,2.911,9.596,5.735,13.897l-4.957,5.987,10.628,10.628,5.987-4.957c4.301,2.824,9.025,4.724,13.898,5.735l.731,7.762h15.029l.731-7.761c4.873-1.012,9.597-2.912,13.898-5.735l5.987,4.957,10.628-10.628-4.957-5.988c2.824-4.301,4.723-9.025,5.735-13.897l7.76-.731v-15.029l-7.76-.731c-1.012-4.872-2.912-9.596-5.736-13.897l4.957-5.988-10.628-10.628-5.987,4.957c-4.302-2.824-9.026-4.725-13.897-5.736l-.731-7.761h-15.03l-.731,7.762c-4.872,1.011-9.596,2.911-13.897,5.735l-5.987-4.957-10.628,10.628,4.957,5.987Zm48.189,7.757c7.945,7.945,7.945,20.828,0,28.774-7.946,7.946-20.829,7.945-28.774,0s-7.946-20.828,0-28.774c7.946-7.946,20.828-7.946,28.774,0Z" style="fill:#e0e0e0;"></path><path d="M169.011,163.806c-3.668,5.587-6.135,11.723-7.45,18.053l-10.081,.949v19.523l10.082,.95c1.313,6.328,3.781,12.465,7.449,18.052l-6.439,7.778,13.805,13.805,7.777-6.439c5.587,3.668,11.724,6.136,18.053,7.449l.949,10.082h19.523l.95-10.081c6.329-1.315,12.466-3.782,18.053-7.45l7.777,6.439,13.805-13.805-6.438-7.778c3.668-5.587,6.135-11.724,7.449-18.052l10.08-.95v-19.523l-10.08-.95c-1.314-6.328-3.783-12.465-7.451-18.052l6.439-7.778-13.805-13.805-7.777,6.439c-5.588-3.668-11.725-6.137-18.052-7.451l-.95-10.081h-19.523l-.949,10.082c-6.329,1.314-12.465,3.781-18.052,7.449l-7.777-6.439-13.806,13.806,6.439,7.778Zm62.597,10.076c10.32,10.321,10.321,27.056,0,37.377-10.322,10.322-27.057,10.321-37.377,0-10.322-10.322-10.321-27.055,0-37.377,10.322-10.321,27.055-10.322,37.377,0Z" style="fill:#ebebeb;"></path><path d="M227.003,83.602c-1.441,2.195-2.41,4.605-2.927,7.092l-3.96,.373v7.669l3.96,.373c.516,2.486,1.485,4.896,2.926,7.092l-2.529,3.055,5.423,5.423,3.055-2.529c2.195,1.441,4.606,2.41,7.092,2.926l.373,3.961h7.669l.373-3.96c2.486-.516,4.897-1.486,7.092-2.927l3.055,2.529,5.423-5.423-2.529-3.055c1.441-2.195,2.41-4.605,2.926-7.092l3.96-.373v-7.669l-3.96-.373c-.516-2.486-1.486-4.897-2.927-7.091l2.529-3.055-5.423-5.423-3.055,2.529c-2.195-1.441-4.606-2.411-7.092-2.927l-.373-3.96h-7.669l-.373,3.961c-2.486,.516-4.897,1.485-7.091,2.926l-3.055-2.529-5.423,5.423,2.529,3.055Zm24.59,3.958c4.054,4.054,4.054,10.628,0,14.683-4.055,4.055-10.629,4.054-14.683,0-4.055-4.055-4.055-10.628,0-14.683,4.055-4.054,10.628-4.055,14.683,0Z" style="fill:#e6e6e6;"></path><path d="M262.468,48.05c-.981,1.494-1.64,3.134-1.992,4.827l-2.695,.254v5.22l2.695,.254c.351,1.692,1.011,3.333,1.992,4.827l-1.722,2.079,3.691,3.691,2.079-1.721c1.494,.981,3.135,1.641,4.827,1.992l.254,2.696h5.22l.254-2.695c1.692-.351,3.333-1.011,4.827-1.992l2.079,1.721,3.691-3.691-1.721-2.079c.981-1.494,1.64-3.135,1.992-4.827l2.695-.254v-5.22l-2.695-.254c-.351-1.692-1.011-3.333-1.992-4.827l1.722-2.079-3.691-3.691-2.079,1.722c-1.494-.981-3.135-1.641-4.827-1.992l-.254-2.695h-5.22l-.254,2.696c-1.692,.351-3.333,1.011-4.827,1.992l-2.079-1.722-3.691,3.691,1.722,2.079Zm16.736,2.694c2.759,2.759,2.759,7.234,0,9.993-2.76,2.76-7.234,2.759-9.994,0-2.76-2.76-2.76-7.234,0-9.993,2.76-2.76,7.233-2.76,9.993,0Z" style="fill:#f0f0f0;"></path><path d="M424.167,161.568c-.981,1.494-1.64,3.134-1.992,4.827l-2.695,.254v5.22l2.695,.254c.351,1.692,1.011,3.333,1.992,4.827l-1.722,2.079,3.691,3.691,2.079-1.721c1.494,.981,3.135,1.641,4.827,1.992l.254,2.696h5.22l.254-2.695c1.692-.351,3.333-1.011,4.827-1.992l2.079,1.721,3.691-3.691-1.721-2.079c.981-1.494,1.64-3.135,1.992-4.827l2.695-.254v-5.22l-2.695-.254c-.351-1.692-1.011-3.333-1.992-4.827l1.721-2.079-3.691-3.691-2.079,1.722c-1.494-.981-3.135-1.641-4.827-1.992l-.254-2.695h-5.22l-.254,2.696c-1.692,.351-3.333,1.011-4.827,1.992l-2.079-1.722-3.691,3.691,1.722,2.079Zm16.736,2.694c2.759,2.759,2.759,7.234,0,9.993-2.76,2.76-7.234,2.759-9.994,0-2.76-2.76-2.76-7.234,0-9.993,2.76-2.76,7.234-2.76,9.993,0Z" style="fill:#f0f0f0;"></path><path d="M84.143,146.228c-2.106,3.207-3.522,6.73-4.277,10.364l-5.788,.545v11.208l5.788,.545c.754,3.633,2.171,7.156,4.277,10.364l-3.697,4.465,7.925,7.925,4.465-3.696c3.208,2.106,6.731,3.523,10.364,4.277l.545,5.788h11.208l.545-5.788c3.634-.755,7.156-2.171,10.364-4.277l4.465,3.696,7.925-7.925-3.696-4.465c2.106-3.208,3.522-6.73,4.276-10.364l5.787-.546v-11.208l-5.787-.545c-.754-3.633-2.171-7.156-4.277-10.363l3.696-4.465-7.925-7.925-4.465,3.697c-3.208-2.106-6.731-3.523-10.364-4.278l-.545-5.788h-11.208l-.545,5.788c-3.633,.754-7.156,2.17-10.363,4.277l-4.465-3.697-7.926,7.926,3.697,4.465Zm35.936,5.784c5.925,5.925,5.925,15.532,0,21.458-5.926,5.926-15.533,5.925-21.458,0-5.925-5.926-5.925-15.532,0-21.458,5.925-5.925,15.532-5.926,21.458,0Z" style="fill:#f0f0f0;"></path><path d="M193.91,284.883c-2.106,3.207-3.522,6.73-4.277,10.364l-5.788,.545v11.208l5.788,.545c.754,3.632,2.171,7.156,4.277,10.364l-3.697,4.465,7.925,7.925,4.465-3.696c3.208,2.106,6.731,3.522,10.364,4.277l.545,5.788h11.208l.545-5.788c3.634-.755,7.156-2.171,10.364-4.277l4.465,3.696,7.925-7.925-3.696-4.465c2.106-3.208,3.522-6.73,4.276-10.364l5.787-.546v-11.208l-5.787-.545c-.754-3.633-2.171-7.156-4.277-10.363l3.696-4.465-7.925-7.925-4.465,3.696c-3.208-2.106-6.731-3.523-10.364-4.278l-.545-5.788h-11.208l-.545,5.788c-3.633,.754-7.156,2.171-10.363,4.277l-4.465-3.697-7.926,7.926,3.697,4.465Zm35.936,5.784c5.925,5.925,5.925,15.532,0,21.458-5.926,5.925-15.533,5.925-21.458,0-5.926-5.925-5.925-15.532,0-21.458,5.925-5.925,15.532-5.925,21.458,0Z" style="fill:#f0f0f0;"></path><g><g><path d="M80.718,241.584c-13.958,16.327-18.034,40.495-10.205,60.497,8.7-7.765,14.826-19.6,15.214-29.952s-2.322-20.541-5.009-30.545Z" style="fill:#e6e6e6;"></path><path d="M78.284,303.968c-4.736,7.257-7.003,16.094-6.345,24.735,7.546-2.627,14.198-11.15,18.186-18.074,3.988-6.923,6.218-14.699,8.247-22.427-8.174,2.876-15.351,8.51-20.087,15.766Z" style="fill:#e6e6e6;"></path><path d="M76.458,270.073c-5.604,20.157-8.465,41.058-8.45,61.981,.004,5.956,.247,11.909,.711,17.847,.037,.478,.788,.482,.75,0-1.631-20.873-.421-41.942,3.634-62.484,1.138-5.765,2.504-11.483,4.078-17.144,.129-.466-.594-.664-.723-.199h0Z" style="fill:#e0e0e0;"></path><path d="M69.049,335.552c5.73-13.63,13.257-26.394,21.956-38.333,.285-.391-.366-.765-.648-.379-8.741,11.996-16.274,24.817-22.032,38.512-.187,.444,.539,.638,.723,.199h0Z" style="fill:#e0e0e0;"></path><path d="M60.839,315.275c3.949,6.051,5.84,13.42,5.291,20.625-6.292-2.191-11.838-9.298-15.164-15.07-3.325-5.773-5.185-12.257-6.876-18.701,6.816,2.399,12.8,7.096,16.749,13.147Z" style="fill:#e6e6e6;"></path><path d="M68.878,340.651c-4.707-11.187-10.914-21.553-18.052-31.35-.281-.386-.932-.012-.648,.379,7.096,9.739,13.297,20.048,17.977,31.17,.184,.438,.91,.246,.723-.199h0Z" style="fill:#e0e0e0;"></path><path d="M69.076,344.45c8.879-9.134,17.944-18.086,26.824-27.22,.337-.346-.193-.877-.53-.53-8.879,9.134-17.944,18.086-26.824,27.22-.337,.346,.193,.877,.53,.53h0Z" style="fill:#e0e0e0;"></path><path d="M96.172,312.971c-7.703,7.429-14.722,15.568-20.937,24.28h1.409c5.863-.275,11.555-3.167,15.233-7.741,3.679-4.574,5.283-10.753,4.294-16.539Z" style="fill:#e6e6e6;"></path><g><path d="M59.631,295.298c3.307,5.409,6.424,10.933,9.343,16.561,.222,.429,.87,.05,.648-.379-2.92-5.628-6.036-11.151-9.343-16.561-.251-.411-.9-.035-.648,.379h0Z" style="fill:#e0e0e0;"></path><path d="M51.73,267.943c-1.261,5.674-2.512,13.052-2.525,18.96-.013,5.908,1.79,11.673,5.147,15.632,3.357,3.959,10.135,5.693,12.867,3.428l-15.489-38.02Z" style="fill:#e6e6e6;"></path></g></g><rect x="51.557" y="347.025" width="35.491" height="6.237" style="fill:#e0e0e0;"></rect><polygon points="79.758 375.48 58.863 375.48 55.065 351.833 82.758 351.833 79.758 375.48" style="fill:#e0e0e0;"></polygon></g><g><g><path d="M439.848,241.584c-13.958,16.327-18.034,40.495-10.205,60.497,8.7-7.765,14.826-19.6,15.214-29.952s-2.322-20.541-5.009-30.545Z" style="fill:#e6e6e6;"></path><path d="M437.413,303.968c-4.736,7.257-7.003,16.094-6.345,24.735,7.546-2.627,14.198-11.15,18.186-18.074,3.988-6.923,6.218-14.699,8.247-22.427-8.174,2.876-15.351,8.51-20.087,15.766Z" style="fill:#e6e6e6;"></path><path d="M435.587,270.073c-5.604,20.157-8.465,41.058-8.45,61.981,.004,5.956,.247,11.909,.711,17.847,.037,.478,.788,.482,.75,0-1.631-20.873-.421-41.942,3.634-62.484,1.138-5.765,2.504-11.483,4.078-17.144,.129-.466-.594-.664-.723-.199h0Z" style="fill:#e0e0e0;"></path><path d="M428.178,335.552c5.73-13.63,13.257-26.394,21.956-38.333,.285-.391-.366-.765-.648-.379-8.741,11.996-16.274,24.817-22.032,38.512-.187,.444,.539,.638,.723,.199h0Z" style="fill:#e0e0e0;"></path><path d="M419.968,315.275c3.949,6.051,5.839,13.42,5.291,20.625-6.292-2.191-11.838-9.298-15.164-15.07-3.325-5.773-5.185-12.257-6.876-18.701,6.816,2.399,12.8,7.096,16.749,13.147Z" style="fill:#e6e6e6;"></path><path d="M428.007,340.651c-4.707-11.187-10.914-21.553-18.052-31.35-.281-.386-.932-.012-.648,.379,7.096,9.739,13.297,20.048,17.977,31.17,.184,.438,.91,.246,.723-.199h0Z" style="fill:#e0e0e0;"></path><path d="M428.205,344.45c8.879-9.134,17.944-18.086,26.824-27.22,.337-.346-.193-.877-.53-.53-8.879,9.134-17.944,18.086-26.824,27.22-.337,.346,.193,.877,.53,.53h0Z" style="fill:#e0e0e0;"></path><path d="M455.301,312.971c-7.703,7.429-14.722,15.568-20.937,24.28h1.409c5.863-.275,11.555-3.167,15.233-7.741,3.679-4.574,5.283-10.753,4.294-16.539Z" style="fill:#e6e6e6;"></path><g><path d="M418.76,295.298c3.308,5.409,6.424,10.933,9.343,16.561,.222,.429,.87,.05,.648-.379-2.92-5.628-6.036-11.151-9.343-16.561-.251-.411-.9-.035-.648,.379h0Z" style="fill:#e0e0e0;"></path><path d="M410.859,267.943c-1.261,5.674-2.512,13.052-2.525,18.96-.013,5.908,1.79,11.673,5.147,15.632,3.357,3.959,10.135,5.693,12.867,3.428l-15.488-38.02Z" style="fill:#e6e6e6;"></path></g></g><rect x="410.686" y="347.025" width="35.491" height="6.237" style="fill:#e0e0e0;"></rect><polygon points="438.887 375.48 417.992 375.48 414.194 351.833 441.887 351.833 438.887 375.48" style="fill:#e0e0e0;"></polygon></g></g><g id="freepik--Shadows--inject-2"><path d="M197.206,438.173c0,6.888-26.949,12.472-60.193,12.472s-60.193-5.584-60.193-12.472,26.949-12.472,60.193-12.472,60.193,5.584,60.193,12.472Z" style="fill:#f5f5f5;"></path><ellipse cx="287.36" cy="469.159" rx="56.317" ry="12.472" style="fill:#f5f5f5;"></ellipse><path d="M444.228,418.343c0,7.605-25.245,13.771-56.387,13.771s-56.387-6.165-56.387-13.771,25.245-13.771,56.387-13.771,56.387,6.165,56.387,13.771Z" style="fill:#f5f5f5;"></path></g><g id="freepik--Speech_Bubble--inject-2"><g><g><path d="M307.043,89.382c7.815-8.733,7.072-22.148-1.661-29.964-8.733-7.816-22.148-7.072-29.964,1.661-6.033,6.742-6.944,16.266-3.037,23.858l-2.285,5.95,6.733-.092c.087,.08,.162,.168,.25,.248,8.733,7.816,22.148,7.072,29.964-1.661Z" style="fill:#407BFF;"></path><path d="M314.521,70.694c-.127,0-.235-.095-.249-.224-.709-6.751-5.091-13.076-11.163-16.112-.124-.062-.174-.212-.112-.335s.216-.173,.335-.112c6.222,3.111,10.712,9.59,11.438,16.507,.014,.137-.086,.26-.223,.274h-.026Z" style="fill:#407BFF;"></path><path d="M314.654,76.986c-.019,0-.038-.002-.058-.007-.135-.032-.218-.167-.186-.301,.235-.985,.264-2.034,.083-3.031-.024-.136,.065-.266,.201-.291,.143-.025,.266,.065,.291,.202,.192,1.064,.162,2.184-.089,3.236-.027,.115-.13,.192-.243,.192Z" style="fill:#407BFF;"></path></g><polygon points="290.811 84.267 281.085 77.025 283.613 73.631 290.134 78.487 299.095 67.797 302.338 70.515 290.811 84.267" style="fill:#fff;"></polygon></g></g><g id="freepik--Character_3--inject-2"><g><g><path d="M253.135,132.075s21.021,27.024,27.46,31.129c6.439,4.105,27.839,18.736,27.839,18.736l7.004-14.037-33.613-17.902-21.521-22.037-7.169,4.111Z" style="fill:#bf5e60;"></path><g><path d="M253.135,132.075s-2.291-1.876-2.606-5.604c-.315-3.728,1.892-20.146,3.469-19.978,1.577,.168,1.156,1.219,1.577,6.264,.42,5.045,1.682,10.462,1.682,10.462l3.048,4.744-7.169,4.111Z" style="fill:#bf5e60;"></path><path d="M252.301,129.218c-.938-1.562-.682-3.765-.434-5.896,.154-1.329,.301-2.584,.163-3.639-.097-.748-.218-1.678,.109-2.504,.333-.841,1.295-1.54,2.204-1.233,.83,.28,1.175,1.188,1.401,2.039l1.525,5.7-.482,.129-1.525-5.7c-.203-.759-.474-1.49-1.079-1.694-.628-.21-1.335,.328-1.579,.943-.279,.706-.173,1.529-.078,2.256,.146,1.116-.005,2.401-.163,3.762-.238,2.048-.484,4.166,.365,5.581l-.428,.258Z" style="fill:#a74145;"></path></g></g><g><polygon points="347.67 390.565 352.922 402.726 362.693 400.709 359.289 386.906 347.67 390.565" style="fill:#bf5e60;"></polygon><g><path d="M350.231,401.384c-.18-.489,.125-1.022,.616-1.16l2.904-.817c.728-.224,1.903,.886,2.519,1.352,2.653,2.013,3.746,.607,5.015-2.444,1.236-.548,2.045,.847,2.274,1.219l5.158,8.181c.439,.681,.255,1.587-.41,2.026-.118,.078-.247,.138-.383,.177-3.908,1.203-5.757,1.773-10.621,3.27l-14.875,4.58c-4.055,1.248-6.181-2.659-4.629-3.559,6.989-4.005,11.613-7.896,13.247-10.839,.234-.394-.486-1.089-.815-1.986Z" style="fill:#263238;"></path><path d="M353.023,405.788c-.059,0-.117-.021-.165-.062-.843-.737-1.999-1.073-3.081-.896-.142,.023-.265-.07-.287-.207-.021-.137,.071-.265,.207-.287,1.236-.2,2.538,.181,3.491,1.013,.104,.091,.114,.249,.023,.354-.05,.056-.119,.085-.188,.085Z" style="fill:#fff;"></path><path d="M351.297,407.711c-.059,0-.117-.021-.165-.062-.841-.737-1.996-1.07-3.082-.895-.144,.023-.265-.071-.287-.207-.021-.137,.07-.265,.207-.287,1.236-.199,2.537,.178,3.492,1.012,.104,.091,.114,.249,.023,.354-.05,.056-.119,.085-.188,.085Z" style="fill:#fff;"></path><path d="M349.082,409.803c-.059,0-.117-.021-.165-.062-.842-.737-1.995-1.07-3.082-.895-.142,.021-.265-.071-.287-.207-.021-.137,.07-.265,.207-.287,1.236-.201,2.538,.178,3.492,1.012,.104,.091,.114,.249,.023,.354-.05,.056-.119,.085-.188,.085Z" style="fill:#fff;"></path></g></g><g><polygon points="414.968 364.186 425.64 371.837 433.043 365.063 423.097 355.018 414.968 364.186" style="fill:#bf5e60;"></polygon><g><path d="M422.541,372.177c-.402-.325-.417-.944-.071-1.324l2.043-2.247c.502-.58,2.066-.252,2.825-.179,3.277,.317,3.484-1.473,2.998-4.769,.767-1.128,2.166-.36,2.55-.163l8.556,4.282c.72,.351,1.029,1.228,.689,1.958-.06,.13-.139,.25-.234,.356-2.695,3.113-3.97,4.587-7.324,8.462l-10.258,11.852c-2.796,3.231-6.596,1.006-5.743-.593,3.871-7.16,5.797-12.964,5.676-16.361-.003-.462-.969-.677-1.707-1.272Z" style="fill:#263238;"></path><path d="M423.893,375.378c-.069,0-.139-.028-.188-.085-.092-.104-.081-.262,.022-.353,.943-.828,2.248-1.198,3.479-.988,.136,.022,.228,.151,.204,.288-.022,.136-.144,.232-.288,.204-1.084-.178-2.231,.143-3.064,.871-.048,.042-.106,.062-.165,.062Z" style="fill:#fff;"></path><path d="M423.413,377.949c-.069,0-.139-.028-.188-.085-.092-.104-.081-.262,.022-.353,.945-.828,2.248-1.199,3.479-.988,.136,.022,.228,.151,.204,.288-.023,.136-.143,.231-.288,.204-1.091-.18-2.233,.143-3.065,.871-.048,.042-.106,.062-.165,.062Z" style="fill:#fff;"></path><path d="M422.607,380.925c-.069,0-.139-.028-.188-.085-.092-.104-.081-.262,.022-.353,.942-.827,2.24-1.204,3.479-.989,.136,.022,.228,.151,.204,.288-.022,.136-.145,.233-.288,.204-1.088-.181-2.234,.142-3.065,.872-.048,.042-.106,.062-.165,.062Z" style="fill:#fff;"></path></g></g><g><path d="M360.214,387.06l-14.419,5.565-20.645-55.128c-.725-1.935-1.122-3.974-1.176-6.039-.45-17.209-2.426-99.337-2.426-99.337,27.352-24.874,33.495,18.566,33.315,19.161-1.804,5.712-6.96,81.513-6.96,81.513,0,0,12.625,40.443,12.312,54.266Z" style="fill:#263238;"></path><path d="M321.352,231.995l.355,.59c5.29,7.159,15.315,14.782,20.553,21.322l1.823,4.125s38.143-29.569,13.351-41.753c-1.031-.507-8.619-4.564-8.619-4.564-6.567-1.612-27.463,20.28-27.463,20.28Z" style="fill:#263238;"></path><path d="M378.348,258.129c2.076,12.916,8.525,46.276,12.178,58.827,0,0,11.238,6.431,17.593,13.626l20.282,28.555-9.049,8.123-36.99-27.058c-8.363-6.297-11.751-10.963-15.032-17.105-8.027-14.997-11.989-34.098-16.78-49.192-2.218-6.999-10.742-29.547-10.015-36.797,.969-9.813,1.316-25.681,13.238-20.285,11.406,3.351,18.17,5.482,24.576,41.306Z" style="fill:#263238;"></path></g><g><path d="M357.09,210.221c-2.972-3.407-4.913-7.586-5.6-12.054-1.048-6.812-2.479-16.333-2.318-17.079l.466-18.37c-4.06-4.06-19.133-4.102-19.133-4.102l-10.111,2.578s-3.755,1.653-6.902,3.414c-4.201,2.352-6.41,2.475-6.988,5.178,0,0-.826,8.855-1.052,17.831-.081,3.203,14.786,32.642,14.975,38.187l.004,9.027c21.55,10.855,44.188-15.982,44.188-15.982l-7.527-8.628Z" style="fill:#407BFF;"></path><path d="M350.003,188.239s-9.447-8.53-8.968-12.522l8.033,4.316,.538,5.405,.397,2.8Z" style="opacity:.3;"></path></g><g><path d="M356.929,170.735c.219,.324,13.9,15.724,19.398,21.554,1.179,1.25,2.091,2.724,2.685,4.337l11.28,31.524-7.065,2.113-16.215-30.491-20.38-17.242,10.297-11.795Z" style="fill:#bf5e60;"></path><path d="M382.961,227.734s-1.887,2.156-1.703,4.518c.185,2.362-.296,4.297-.038,6.044s1.535-.266,1.998-1.474c.462-1.208,.999-2.572,1.85-2.078,.851,.494,5.087,7.823,6.345,8.373,1.258,.551,.944-.849,.944-.849,0,0,1.077,1.752,1.887,1.515,.21-.062,.6-.546,.234-1.422-.822-1.969-2.761-6.014-2.761-6.014,.106,.234,2.856,5.055,3.362,5.724,.661,.874,1.419,.948,1.912,.548,.703-.569-2.502-6.663-2.457-7.014,0,0,1.728,3.57,2.893,3.628,1.166,.058,.201-2.248-1.036-4.12-1.134-1.716-2.91-5.38-4.232-7.012-1.629-2.012-3.175-2.997-5.525-2.386-2.35,.611-3.674,2.018-3.674,2.018Z" style="fill:#bf5e60;"></path><path d="M347.044,161.334c4.582,.294,12.9,11.751,12.9,11.751l-10.769,12.172s-10.102-8.819-10.276-14.721c-.133-4.988,2.325-9.585,8.145-9.202Z" style="fill:#407BFF;"></path></g><path d="M314.368,164.552s-15.981-5.927-15.72-5.743c.261,.184-6.434,15.102-6.434,15.102l15.588,10.525,6.566-19.884Z" style="fill:#407BFF;"></path><g><path d="M362.715,147.582c4.901-2.646,7.607-8.806,6.24-14.206-2.851,1.261-5.732,2.532-8.791,3.136s-6.355,.492-9.135-.921c-2.093-1.064-3.762-2.785-5.46-4.407-1.698-1.622-3.537-3.215-5.777-3.917-2.241-.701-4.987-.291-6.433,1.559l-3.136,4.953c2.051-.471,4.205,.762,5.388,2.503,1.183,1.741,1.578,3.89,1.808,5.983,.229,2.092,.327,4.228,1.016,6.217,.882,2.545,2.691,4.689,4.799,6.365,4.68,3.72,11.079,5.274,16.886,3.856,5.808-1.417,10.847-5.862,12.736-11.534-3.327,.695-6.769,.836-10.142,.414Z" style="fill:#263238;"></path><g><path d="M316.178,124.345s-7.516,13.545-7.872,17.758c-2.877,2.45-4.922-2.517-4.814-9.174,.088-5.449,2.93-11.329,7.639-13.446,6.615-2.975,5.048,4.863,5.048,4.863Z" style="fill:#263238;"></path><g><g><path d="M315.828,170.735s-2.024-6.243-.176-7.278c1.259-1.257,2.898-2.724,2.659-4.554-.166-1.407-.62-2.869-1.161-4.293l1.878-2.042,9.77-9.17c-.466,6.343-3.135,11.591,1.705,15.219" style="fill:#bf5e60;"></path><path d="M318.368,159.447c2.648-1.445,5.589-4.011,5.359-7.073-.105-1.289-.338-2.516-.618-3.307l-5.518,6.78c.391,1.139,.522,1.888,.777,3.6Z" style="opacity:.2;"></path><path d="M331.838,133.289c-1.238,9.652-1.558,13.753-6.74,18.649-7.794,7.365-19.266,4.377-20.908-5.295-1.479-8.705,.795-23.027,10.45-26.752,9.512-3.67,18.437,3.745,17.198,13.397Z" style="fill:#bf5e60;"></path><path d="M318.704,136.691c-.008,.909-.529,1.68-1.166,1.723-.636,.043-1.145-.658-1.137-1.566,.008-.909,.53-1.68,1.165-1.724,.636-.043,1.145,.658,1.137,1.567Z" style="fill:#263238;"></path><path d="M309.489,135.985c.043,.879-.433,1.658-1.064,1.739-.63,.081-1.176-.567-1.219-1.446-.043-.879,.433-1.658,1.064-1.739,.63-.081,1.176,.566,1.219,1.446Z" style="fill:#263238;"></path><path d="M321.281,133.572c-.124,.008-.247-.034-.339-.127-1.428-1.449-3.129-1.042-3.149-1.037-.252,.061-.497-.091-.543-.348-.044-.256,.126-.515,.381-.58,.089-.022,2.224-.535,3.996,1.265,.176,.179,.166,.482-.023,.676-.091,.093-.208,.144-.324,.152Z" style="fill:#263238;"></path><path d="M306.273,131.59c-.112-.037-.208-.114-.261-.223-.111-.226-.002-.505,.241-.622,2.444-1.179,4.349-.157,4.429-.111,.226,.125,.293,.406,.149,.628-.143,.222-.443,.3-.669,.177-.074-.041-1.564-.813-3.507,.125-.126,.061-.263,.067-.382,.028Z" style="fill:#263238;"></path><path d="M307.07,122.766c2.049-4.259,10.395-8.216,19.992-4.104,14.315,4.848,7.452,28.066,3.161,23.475-1.167-1.249-2.151-2.487-2.979-3.679-4.98-7.163-11.935-12.722-20.142-15.68l-.031-.011Z" style="fill:#263238;"></path><path d="M334.481,141.288c-1.216,1.945-3.12,3.124-4.84,3.49-2.586,.55-3.761-3.62-2.793-6.156,.872-2.283,3.446-3.722,5.922-3.128,2.44,.586,3.1,3.57,1.71,5.794Z" style="fill:#bf5e60;"></path><path d="M312.246,135.233s-1.647,3.57-3.438,5.768c-.313,.384-.149,.967,.309,1.155,1.18,.484,2.594,.136,2.594,.136l.534-7.059Z" style="fill:#a74145;"></path></g><path d="M317.759,135.093l-2.246-.42s1.293,1.6,2.246,.42Z" style="fill:#263238;"></path><path d="M308.595,134.55l-2.267-.286c1.103,1.21,1.983,.684,2.267,.286Z" style="fill:#263238;"></path></g><path d="M330.224,142.387c-.113,0-.216-.077-.243-.192-.032-.135,.051-.27,.186-.301,1.388-.331,2.012-1.041,2.291-1.579,.308-.591,.286-1.13,.174-1.412-.227-.569-.95-1.023-1.62-.765-.128,.047-.274-.015-.323-.144-.05-.129,.015-.274,.144-.323,.957-.365,1.945,.243,2.265,1.047,.202,.508,.127,1.208-.194,1.827-.328,.63-1.049,1.46-2.62,1.834-.02,.005-.039,.007-.058,.007Z" style="opacity:.2;"></path></g><path d="M310.821,145.456c.727,1.068,1.618,3.149,1.618,3.149,.203-.047,.406-.093,.606-.151,2.738-.703,3.776-1.934,4.096-3.085,.173-.63,.123-1.243,.019-1.725-.114-.56-.323-.933-.323-.933-1.229,1.24-3.731,2.091-5.086,2.491-.566,.173-.93,.254-.93,.254Z" style="fill:#263238;"></path><path d="M311.751,145.202l.501,.916c2.577-.668,4.302-1.485,4.909-2.474-.114-.56-.323-.933-.323-.933-1.229,1.24-3.731,2.091-5.086,2.491Z" style="fill:#fff;"></path><path d="M313.045,148.454c2.738-.703,3.776-1.934,4.096-3.085-.924,.275-2.007,.71-2.885,1.383-.674,.511-1.023,1.124-1.211,1.702Z" style="fill:#fb504e;"></path></g></g></g><g id="freepik--Character_1--inject-2"><g><path d="M132.977,177.422s-14.739,23.338-17.481,35.138c-1.487,6.403,6.84,35.808,6.84,35.808l8.385-1.163s-4.418-29.995-2.842-32.89c4.742-8.712,19.473-27.511,19.246-28.074s-14.147-8.82-14.147-8.82Z" style="fill:#fdac6d;"></path><path d="M122.64,256.921c.937,2.179,2.228,5.005,3.344,5.279,1.116,.273,1.431-.613,2.141-.622,.71-.009,1.614,.8,2.865-.681,0,0,2.524,1.013,3.271-.779,1.773-.172,2.255-1.225,1.938-3.12-.098-.451-1.189-2.955-1.242-3.423,.172,.096,1.836,2.79,2.083,2.868,2.084,.664,3.127,.361,3.147-.618,.01-.505-.298-.963-.74-1.206-1.083-.595-1.463-4.975-2.729-5.719-1.062-.624-4.724-2.493-6.241-2.884-1.517-.391-7.698,1.304-7.698,1.304,0,0-1.075,7.422-.138,9.601Z" style="fill:#fdac6d;"></path></g><g><path d="M184.337,163.403s21.419-5.812,26.995-9.824c5.576-4.011,15.539-31.351,15.539-31.351l7.404,.12s-5.598,31.347-10.65,37.921c-5.052,6.574-30.458,18.725-30.458,18.725l-8.831-15.591Z" style="fill:#fdac6d;"></path><path d="M227.534,123.28s-2.737-2.004-3.134-4.781c-.396-2.777-1.452-4.889-1.604-6.974s1.843-.09,2.689,1.187c.846,1.276,1.819,2.714,2.675,1.923,.856-.791,3.858-10.352,5.169-11.314,1.311-.962,1.309,.737,1.309,.737,0,0,.792-2.303,1.789-2.238,.259,.017,.834,.477,.638,1.583-.442,2.488-1.637,7.661-1.637,7.661,.063-.298,1.995-6.579,2.407-7.482,.539-1.18,1.395-1.462,2.068-1.127,.959,.476-1.171,8.345-1.029,8.739,0,0,1.075-4.571,2.407-4.939,1.332-.368,.812,2.546-.134,5.029-.867,2.276-1.973,6.968-3.08,9.196-1.363,2.745-2.895,4.283-5.768,4.184-2.873-.099-4.766-1.384-4.766-1.384Z" style="fill:#fdac6d;"></path></g><g><polygon points="174.396 424.122 184.072 425.638 192.224 405.144 179.523 401.085 174.396 424.122" style="fill:#fdac6d;"></polygon><path d="M185.265,423.988l-3.059-.884c-.692-.2-1.434-.035-2.004,.405-2.46,1.899-3.523,.605-4.786-2.214-1.179-.495-1.912,.81-2.12,1.157l-4.691,7.657c-.399,.637-.207,1.478,.43,1.877,.113,.071,.236,.125,.365,.16,3.714,1.074,5.472,1.582,10.095,2.918l14.139,4.087c3.854,1.114,5.776-2.539,4.292-3.358-6.683-3.641-11.131-7.204-12.738-9.918-.304-.482,.195-.632,.076-1.887Z" style="fill:#263238;"></path><path d="M191.219,428.272c.389-.138,.689-.453,.808-.848,.089-.205,.052-.443-.094-.611-.762-.956-5.103-.274-5.593-.189-.053,.003-.101,.03-.132,.073-.057,.079-.039,.19,.04,.247,.876,.494,1.8,.896,2.759,1.198,.705,.278,1.48,.324,2.213,.131Zm.391-1.239c.064,.071,.077,.174,.034,.259-.099,.282-.314,.507-.59,.619-1.056,.398-3.072-.488-4.14-1.024,1.79-.24,4.274-.377,4.697,.146Z" style="fill:#407BFF;"></path><path d="M186.366,427.02c1.287-.147,4.239-1.339,4.397-2.375,.041-.215-.037-.508-.536-.728-2.028-.846-4.014,2.659-4.061,2.819-.039,.058-.04,.135-.002,.194,.036,.023,.077,.035,.12,.035l.081,.056Zm3.702-2.814c.378,.152,.338,.292,.323,.342-.066,.641-2.267,1.703-3.706,2.001,.514-.804,1.917-2.778,3.246-2.394l.137,.05Z" style="fill:#407BFF;"></path><path d="M183.625,428.135c-.069,0-.137-.028-.187-.084-.092-.103-.083-.261,.021-.353,.884-.788,2.11-1.159,3.283-.983,.137,.02,.231,.146,.211,.283-.021,.136-.151,.23-.284,.211-1.03-.15-2.104,.173-2.879,.862-.047,.043-.107,.063-.166,.063Z" style="fill:#407BFF;"></path><path d="M185.112,430.115c-.069,0-.137-.028-.187-.084-.092-.103-.083-.261,.02-.353,.885-.788,2.113-1.156,3.284-.983,.136,.02,.231,.146,.211,.283-.021,.138-.144,.235-.284,.211-1.023-.151-2.102,.172-2.878,.862-.048,.043-.107,.063-.167,.063Z" style="fill:#407BFF;"></path><path d="M187.13,432.002c-.069,0-.137-.028-.187-.084-.092-.103-.083-.261,.02-.353,.884-.787,2.111-1.158,3.284-.983,.137,.02,.231,.146,.211,.283-.021,.136-.154,.23-.284,.211-1.03-.15-2.104,.172-2.878,.862-.048,.043-.107,.063-.167,.063Z" style="fill:#407BFF;"></path></g><g><polygon points="87.719 390.757 96.809 394.405 109.35 376.262 97.883 369.458 87.719 390.757" style="fill:#fdac6d;"></polygon><path d="M98.342,393.065l-2.782-1.548c-.63-.35-1.389-.356-2.044-.055-2.824,1.299-3.569-.2-4.168-3.231-1.038-.746-2.044,.361-2.325,.653l-6.289,6.409c-.532,.531-.533,1.394-.001,1.926,.095,.095,.202,.175,.32,.238,3.379,1.879,4.978,2.769,9.183,5.108l12.862,7.154c3.506,1.95,6.198-1.179,4.936-2.309-5.696-5.048-9.232-9.517-10.189-12.523-.188-.538,.332-.573,.497-1.822Z" style="fill:#263238;"></path><path d="M103.183,398.575c.41-.048,.773-.287,.978-.646,.132-.18,.15-.419,.046-.617-.528-1.103-4.912-1.412-5.408-1.438-.052-.009-.105,.007-.145,.041-.073,.064-.081,.176-.017,.249,.742,.678,1.553,1.276,2.42,1.786,.624,.429,1.369,.648,2.127,.624Zm.659-1.12c.046,.083,.037,.187-.025,.26-.159,.252-.419,.424-.714,.471-1.119,.151-2.885-1.164-3.805-1.926,1.798,.168,4.25,.592,4.544,1.196Z" style="fill:#407BFF;"></path><path d="M98.734,396.267c1.287,.145,4.431-.354,4.818-1.328,.088-.201,.078-.504-.359-.83-1.786-1.279-4.508,1.691-4.589,1.836-.051,.048-.069,.122-.045,.189,.029,.03,.067,.051,.109,.061l.067,.073Zm4.239-1.912c.334,.233,.263,.361,.238,.406-.208,.61-2.591,1.152-4.06,1.12,.681-.668,2.492-2.277,3.7-1.605l.122,.08Z" style="fill:#407BFF;"></path><path d="M95.87,396.744c-.088,0-.174-.047-.219-.13-.066-.121-.022-.273,.099-.34,1.039-.569,2.317-.651,3.42-.22,.129,.05,.192,.194,.142,.323-.051,.128-.197,.191-.324,.142-.966-.375-2.088-.305-2.999,.194-.038,.021-.079,.03-.12,.03Z" style="fill:#407BFF;"></path><path d="M96.875,399.008c-.088,0-.174-.047-.219-.13-.066-.121-.022-.273,.099-.339,1.039-.569,2.318-.652,3.421-.222,.129,.05,.192,.194,.142,.323-.05,.128-.195,.191-.324,.142-.968-.375-2.089-.306-2.999,.195-.038,.021-.079,.03-.12,.03Z" style="fill:#407BFF;"></path><path d="M98.417,401.299c-.088,0-.174-.047-.219-.13-.066-.121-.022-.273,.099-.34,1.039-.569,2.317-.65,3.42-.22,.129,.05,.192,.194,.142,.323-.05,.128-.196,.191-.324,.142-.966-.375-2.088-.305-2.999,.194-.038,.021-.079,.03-.12,.03Z" style="fill:#407BFF;"></path></g><g><path d="M88.317,381.101l16.554,10.376s37.946-51.275,45.022-64.429c7.075-13.154,21.427-47.484,21.427-47.484h0l-.027,.067c.338,.994,1.69,11.336,4.832,21.798,4.103,13.685,8.428,28.438,9.267,32.263,2.44,11.264-11.895,81.487-11.895,81.487l17.421,4.894s20.828-70.826,21.797-80.388c2.26-22.306-14.978-77.725-15.462-80.562-.626-3.624-1.327-14.612-1.327-14.612l-45.599-11.952s-3.312,6.25-5.537,11.982c-8.335,21.511-14.985,60.743-17.355,68.828-12.349,15.343-39.118,67.732-39.118,67.732Z" style="fill:#263238;"></path></g><g><path d="M179.036,181.095c6.739,4.751,31.257-3.032,31.257-3.032l-3.369-21.665s-10.03,2.37-20.553,5.458c-7.154,2.066-14.735,14.073-7.334,19.239Z" style="fill:#407BFF;"></path><path d="M141.152,164.244c1.692,9.648-.393,19.372-.171,29.164,.191,6.851,.19,13.617-.057,19.524-.55,13.815-2.488,31.737-2.409,35.331,17.721-6.136,54.092,20.875,67.52,5.666-12.249-43.751-15.391-93.299-15.391-93.299-5.015,0-7.856,1.793-11.579,1.348-.786-.09-1.584-.169-2.403-.236-6.659-.301-13.331-.218-19.98,.247-1.258,.079-2.538,.191-3.785,.314-6.379,.618-11.744,1.94-11.744,1.94Z" style="fill:#407BFF;"></path><path d="M141.895,164.074c-8.356,1.191-25.132,29.761-25.132,29.761l21.699,12.119s7.391-15.213,12.793-24.816c5.874-10.456,.748-18.501-9.36-17.064Z" style="fill:#407BFF;"></path></g><g><path d="M183.227,122.836l1.009,.593c1.182,.024,2.293,.917,2.57,2.067,.277,1.15-.304,2.45-1.345,3.011-.157,.084-.338,.171-.393,.34-.089,.271,.195,.502,.411,.688,1.062,.918,.93,2.743-.024,3.772-.955,1.029-2.472,1.361-3.872,1.25-.365-3.949,1.984-7.769,1.644-11.72Z" style="fill:#263238;"></path><path d="M153.156,133.951c-1.503,.072-3.006-.855-3.614-2.232-.168-.381-.273-.803-.204-1.213,.187-1.111,1.462-1.62,2.547-1.927-1.212-.296-2.024-1.501-2.257-2.726-.106-.56-.115-1.15,.067-1.691,.306-.91,1.121-1.577,2.011-1.936,.89-.359,1.862-.454,2.818-.546l5.508,17.474c-1.23,.276-2.507,.444-3.749,.232-1.242-.212-2.455-.844-3.148-1.897-.693-1.053-.759-2.55,.022-3.538Z" style="fill:#263238;"></path><path d="M174.53,161.66c-2-2.845-1.257-6.892-.766-8.286,.245-.78,.543-1.543,.893-2.282l-14.488-12.558c.912,6.539,3.832,18.979-1.251,23.314,0,0,10.645,7.439,13.281,4.895,2.636-2.543,2.332-5.084,2.332-5.084Z" style="fill:#fdac6d;"></path><path d="M162.764,145.187c-.867,7.631,6.78,11.328,10.646,12.546-.255-1.455-.131-2.952,.359-4.345l-11.006-8.201Z" style="isolation:isolate; opacity:.2;"></path><g><g><path d="M157.685,132.833c1.789,9.016,2.61,14.137,7.962,18.152,8.05,6.04,18.805,.528,19.827-8.859,.92-8.45-2.159-21.775-11.807-24.128-9.505-2.319-17.771,5.82-15.982,14.836Z" style="fill:#fdac6d;"></path><path d="M155.039,122.056c.615-5.174,13.53-6.888,17.48-4.792,.59,.313-6.564,5.032-6.122,4.807l-3.442,1.674c-.571-.048-1.577,.722-1.918,2.47,0,0,2.271,13.884-1.254,18.44-3.473-1.128-4.402-6.628-5.871-9.784-2.189-4.703-4.996-11.644,1.126-12.815Z" style="fill:#263238;"></path><path d="M155.002,140.886c1.06,2.244,3.093,3.79,5.069,4.447,2.972,.989,3.617-2.111,2.97-4.941-.582-2.547-1.776-5.588-4.845-5.351-3.023,.233-4.406,3.279-3.193,5.845Z" style="fill:#fdac6d;"></path><path d="M171.717,133.042c.124,.93,.732,1.614,1.358,1.528,.626-.086,1.033-.911,.908-1.841-.124-.93-.732-1.614-1.358-1.528-.626,.086-1.033,.911-.909,1.841Z" style="fill:#263238;"></path><path d="M180.841,132.746c.124,.931,.732,1.614,1.358,1.528,.626-.087,1.033-.911,.909-1.841s-.732-1.614-1.358-1.528c-.626,.087-1.033,.911-.909,1.841Z" style="fill:#263238;"></path><path d="M177.717,132.59s3.648,4.233,4.871,5.99c-1.176,1.341-3.544,1.096-3.544,1.096l-1.327-7.086Z" style="fill:#ed8640;"></path><path d="M168.501,129.654c.152,.039,.322,0,.441-.119,1.422-1.402,3.059-1.112,3.075-1.109,.245,.046,.485-.109,.535-.346,.05-.237-.108-.467-.352-.514-.086-.017-2.137-.381-3.901,1.36-.176,.174-.175,.451,.002,.619,.057,.055,.126,.091,.199,.109Z" style="fill:#263238;"></path><path d="M161.439,140.522c-.112,0-.213-.075-.242-.188-.186-.73-.566-1.402-1.101-1.944-.347-.352-.905-.786-1.598-.86-.612-.064-1.235,.222-1.473,.683-.063,.124-.214,.171-.336,.108-.123-.063-.171-.214-.108-.336,.333-.649,1.152-1.042,1.97-.951,.839,.09,1.497,.597,1.9,1.006,.597,.605,1.022,1.356,1.229,2.172,.034,.134-.047,.27-.181,.304-.021,.005-.042,.008-.062,.008Z" style="opacity:.2;"></path><path d="M184.459,128.255c.081-.028,.155-.079,.21-.151,.15-.195,.112-.471-.086-.617-1.986-1.459-3.939-.766-4.03-.746-.234,.084-.356,.338-.272,.566,.083,.227,.339,.344,.572,.263,.08-.032,1.592-.547,3.185,.624,.125,.092,.283,.11,.421,.062Z" style="fill:#263238;"></path></g><path d="M152.008,117.93c.476-2.188,3.234-2.97,5.417-2.778-.4-2.563,2.878-4.437,5.059-4.611,2.272-.182,3.186,.607,3.186,.607-.171,.055,.537-1.352,1.01-1.932,1.745-2.14,4.784-3.067,7.392-2.255,2.609,.812,4.635,3.316,4.929,6.091,1.244-1.548,3.766-1.774,5.259-.471,1.493,1.303,1.676,3.889,.381,5.393,1.673-.085,3.256,1.461,3.253,3.176-.004,1.715-1.595,3.248-3.267,3.147,.119,1.916,.183,4.318,.302,6.235l-3.42-6.714c-1.402-.317-1.727-.886-2.164-2.287-.785,1.908-2.356,1.935-4.374,2.083-2.018,.148-4.078-.946-5.127-2.72-.826,1.994-2.636,3.639-4.745,3.823-2.109,.184-4.345-1.388-4.582-3.542-1.032,1.976-3.576,2.96-5.63,2.177-2.054-.783-3.355-3.234-2.878-5.422Z" style="fill:#263238;"></path><g><path d="M178.698,142.763c-.777,1.002-1.48,2.058-2.103,3.161-.208-.076-.423-.149-.628-.235-2.835-1.08-3.798-2.513-3.99-3.782-.083-.622-.019-1.255,.187-1.848,.108-.337,.263-.657,.459-.951,1.162,1.472,3.719,2.68,5.117,3.268,.614,.225,.959,.388,.959,.388Z" style="fill:#263238;"></path><path d="M177.774,142.358l-.647,.916c-2.661-1.021-4.398-2.089-4.929-3.233,.108-.337,.263-.657,.459-.951,1.168,1.485,3.719,2.68,5.117,3.268Z" style="fill:#fff;"></path><path d="M176.001,145.672c-2.835-1.08-3.798-2.513-3.99-3.782,1.07,.43,2.055,1.046,2.91,1.819,.556,.526,.934,1.212,1.081,1.963Z" style="fill:#d7504d;"></path></g></g></g></g><g id="freepik--Character_2--inject-2"><g><path d="M293.999,194.321c1.221,1.305,2.213,2.474,3.257,3.725,1.044,1.251,2.032,2.487,2.985,3.766,1.94,2.527,3.774,5.137,5.562,7.779,1.788,2.642,3.482,5.346,5.069,8.157l1.35,2.224c.504,.838,.907,1.693,1.332,2.538,.792,1.676,1.467,3.405,2.018,5.174,1.063,3.333,1.787,6.766,2.162,10.244,.38,3.338,.513,6.699,.396,10.056-.082,3.276-.362,6.543-.838,9.785-.452,3.249-1.112,6.467-1.977,9.631l-8.236-1.37c.01-2.8-.033-5.862-.197-8.774-.164-2.911-.428-5.851-.797-8.706-.614-5.466-1.985-10.82-4.074-15.908-.502-1.128-1.068-2.226-1.695-3.289-.321-.501-.618-1.024-.952-1.482-.189-.247-.302-.433-.533-.727l-.681-.893c-1.849-2.353-3.675-4.704-5.557-7.059-1.882-2.355-3.742-4.708-5.619-6.961l-5.528-6.776,12.556-11.134Z" style="fill:#ffbbb5;"></path><path d="M271.41,200.205c-1.797,6.413,17.471,19.343,17.471,19.343l16.517-12.578c-3.681-5.954-7.886-11.568-12.564-16.775-7.721-8.597-18.506-.379-21.424,10.01Z" style="fill:#263238;"></path><path d="M271.41,200.205c-1.797,6.413,17.471,19.343,17.471,19.343l16.517-12.578c-3.681-5.954-7.886-11.568-12.564-16.775-7.721-8.597-18.506-.379-21.424,10.01Z" style="fill:#fff; opacity:.2;"></path><path d="M284.88,207.784c-2.761-1.717-3.397,1.813-3.211,6.357,3.808,3.126,7.202,5.407,7.202,5.407l2.103-1.604c-1.35-4.226-3.32-8.442-6.093-10.16Z" style="isolation:isolate; opacity:.2;"></path><path d="M309.405,263.836s-3.349,.539-4.966,2.832c-1.617,2.292-3.518,3.693-4.602,5.48-1.084,1.788,1.6,.918,2.935,.167,1.334-.751,2.855-1.589,3.257-.496,.402,1.094-1.275,10.974-.545,12.427,.73,1.453,1.501-.061,1.501-.061,0,0-.343,2.411,.575,2.807,.238,.103,.96-.045,1.288-1.119,.739-2.416,2.028-7.567,2.028-7.567-.08,.294-1.217,6.766-1.261,7.757-.057,1.296,.577,1.936,1.329,1.945,1.071,.013,2.754-7.964,3.061-8.25,0,0-1.123,4.559-.105,5.493,1.018,.934,1.882-1.898,2.169-4.539,.263-2.421,1.413-7.103,1.442-9.59,.036-3.065-.629-5.131-3.232-6.35-2.603-1.219-4.874-.936-4.874-.936Z" style="fill:#ffbbb5;"></path></g><path d="M228.874,292.245s20.878,1.834,44.174-1.116c23.297-2.95,23.536-6.618,23.536-6.618l-6.962-8.037s-15.839-3.878-17.094-4.102c-1.254-.225-43.654,19.874-43.654,19.874Z" style="fill:#263238;"></path><g><polygon points="320.226 448.282 310.663 450.395 301.255 430.447 313.679 425.608 320.226 448.282" style="fill:#ffbbb5;"></polygon><path d="M309.37,448.823l2.998-1.072c.678-.243,1.429-.124,2.025,.28,2.573,1.743,3.553,.386,4.64-2.507,1.146-.567,1.958,.69,2.188,1.024l5.157,7.351c.438,.611,.298,1.462-.313,1.9-.109,.078-.228,.139-.355,.182-3.641,1.302-5.363,1.918-9.894,3.539l-13.858,4.957c-3.778,1.351-5.922-2.176-4.492-3.085,6.444-4.049,10.663-7.881,12.098-10.69,.274-.5-.234-.619-.193-1.879Z" style="fill:#263238;"></path><path d="M305.893,453.199c.938-.361,1.836-.819,2.679-1.367,.075-.062,.086-.173,.024-.249-.034-.041-.084-.064-.136-.065-.494-.055-4.869-.466-5.571,.536-.135,.177-.157,.417-.056,.616,.144,.387,.462,.683,.859,.797,.743,.147,1.514,.053,2.2-.268Zm2.012-1.382c-1.032,.601-2.99,1.61-4.069,1.279-.283-.095-.511-.306-.628-.581-.049-.082-.042-.185,.017-.26,.389-.548,2.877-.566,4.679-.437Z" style="fill:#407BFF;"></path><path d="M308.537,451.856c.042-.002,.083-.017,.117-.042,.034-.062,.029-.138-.014-.194-.056-.157-2.256-3.531-4.228-2.561-.484,.251-.544,.548-.49,.76,.223,1.024,3.243,2.03,4.536,2.097l.078-.061Zm-3.814-2.577c1.302-.466,2.825,1.418,3.388,2.188-1.454-.208-3.717-1.132-3.823-1.768-.017-.049-.066-.186,.301-.362l.133-.059Z" style="fill:#407BFF;"></path><path d="M311.248,452.86c-.054,0-.108-.018-.154-.054-.816-.641-1.914-.894-2.926-.682-.141,.031-.268-.059-.296-.192-.029-.135,.058-.268,.192-.296,1.157-.249,2.405,.044,3.338,.777,.108,.085,.128,.242,.042,.351-.049,.062-.122,.096-.196,.096Z" style="fill:#407BFF;"></path><path d="M309.887,454.929c-.054,0-.108-.018-.154-.054-.817-.641-1.915-.895-2.927-.682-.142,.033-.268-.059-.296-.192-.029-.136,.058-.268,.192-.296,1.16-.248,2.406,.045,3.339,.777,.108,.085,.128,.242,.042,.351-.049,.062-.122,.096-.196,.096Z" style="fill:#407BFF;"></path><path d="M307.99,456.938c-.054,0-.108-.018-.154-.054-.816-.641-1.914-.894-2.926-.682-.141,.032-.268-.059-.296-.192-.029-.135,.058-.268,.192-.296,1.157-.248,2.404,.044,3.338,.777,.108,.085,.128,.242,.042,.351-.049,.062-.122,.096-.196,.096Z" style="fill:#407BFF;"></path></g><g><polygon points="262.323 462.045 252.53 462.163 247.389 440.715 260.539 438.513 262.323 462.045" style="fill:#ffbbb5;"></polygon><path d="M251.584,460.36l3.154-.438c.714-.099,1.424,.17,1.925,.687,2.164,2.231,3.4,1.103,5.054-1.507,1.237-.321,1.776,1.075,1.933,1.449l3.549,8.248c.304,.688-.007,1.492-.694,1.796-.122,.054-.252,.09-.385,.106-3.83,.532-5.642,.784-10.408,1.446l-14.578,2.025c-3.974,.552-5.354-3.338-3.768-3.936,7.135-2.649,12.046-5.539,14.024-7.997,.37-.434-.102-.654,.195-1.879Z" style="fill:#263238;"></path><path d="M247.288,463.936c.992-.162,1.965-.427,2.902-.791,.087-.045,.12-.152,.075-.239-.024-.047-.069-.08-.12-.091-.473-.155-4.672-1.45-5.563-.612-.169,.146-.239,.376-.18,.592,.062,.408,.313,.763,.678,.955,.697,.296,1.471,.361,2.209,.186Zm2.251-.942c-1.133,.378-3.255,.966-4.244,.422-.258-.151-.438-.404-.496-.697-.031-.09-.003-.19,.07-.251,.492-.457,2.932,.033,4.669,.527Z" style="fill:#407BFF;"></path><path d="M250.15,463.16c.042,.006,.085,0,.123-.017,.046-.053,.056-.129,.026-.192-.023-.165-1.489-3.917-3.616-3.37-.525,.146-.644,.425-.635,.644,.009,1.048,2.761,2.649,4.013,2.979l.088-.044Zm-3.208-3.301c1.369-.19,2.477,1.965,2.87,2.833-1.381-.501-3.407-1.867-3.381-2.51-.007-.052-.027-.196,.369-.293l.143-.03Z" style="fill:#407BFF;"></path><path d="M252.65,464.701c-.071,0-.142-.03-.191-.089-.667-.792-1.683-1.265-2.72-1.265h-.006c-.138,0-.25-.111-.25-.25,0-.138,.111-.25,.25-.25h.007c1.182,0,2.342,.539,3.103,1.442,.089,.105,.075,.264-.03,.353-.047,.039-.104,.059-.161,.059Z" style="fill:#407BFF;"></path><path d="M250.896,466.448c-.071,0-.142-.03-.191-.089-.667-.792-1.682-1.264-2.716-1.264h-.01c-.138,0-.25-.111-.25-.249,0-.142,.116-.251,.26-.251,1.181,0,2.338,.538,3.099,1.441,.089,.105,.075,.264-.03,.353-.047,.039-.104,.059-.161,.059Z" style="fill:#407BFF;"></path><path d="M248.629,468.028c-.071,0-.142-.03-.191-.089-.667-.792-1.683-1.265-2.717-1.265h-.01c-.138,0-.25-.111-.25-.249,0-.142,.117-.253,.26-.251,1.18,0,2.338,.539,3.1,1.442,.089,.105,.075,.264-.03,.353-.047,.039-.104,.059-.161,.059Z" style="fill:#407BFF;"></path></g><path d="M269.127,162.451c-1.022,6.636-1.811,18.763,2.983,22.967-3.435,3.712-7.938,8.017-15.756,8.616s-6.669-4.871-4.719-7.766c7.28-2.058,6.863-7.492,5.369-12.569l12.123-11.248Z" style="fill:#ffbbb5;"></path><path d="M249.146,154.835c-.119,.724-.587,1.25-1.056,1.179-.468-.071-.759-.717-.651-1.442,.108-.725,.586-1.238,1.055-1.167s.759,.717,.651,1.431Z" style="fill:#263238;"></path><path d="M248.849,155.527c-1.195,2.066-2.671,3.956-4.385,5.616,.876,.86,2.087,1.289,3.309,1.174l1.076-6.791Z" style="fill:#e97a75;"></path><path d="M251.225,152.24c-.129-.058-.22-.177-.241-.317-.153-1.078-.817-2.016-1.783-2.518-.218-.093-.32-.345-.227-.564,.093-.218,.345-.32,.564-.227h0c1.227,.625,2.078,1.803,2.287,3.165,.036,.232-.122,.449-.353,.486-.082,.02-.169,.011-.246-.025Z" style="fill:#263238;"></path><path d="M273.784,156.793c-2.227,8.672-3.089,13.855-8.379,17.531-7.967,5.495-18.021-.599-18.433-9.756-.373-8.244,3.321-21.03,12.582-22.921,6.606-1.349,13.055,2.912,14.405,9.518,.381,1.864,.321,3.792-.176,5.628Z" style="fill:#ffbbb5;"></path><path d="M255.851,158.246c-2.361-3.045-1.07-9.25,.677-12.156-1.928,1.085-8.24,.306-7.997-4.664,.349-7.281,12.678-8.292,19.313-6.64,7.641,1.956,14.168,9.586,16.976,7.234,2.477,4.998-2.428,6.423-2.428,6.423,0,0,4.105,12.321-14.035,23.155-2.379-.471-4.825-.504-7.216-.099-.541-.032-1.048-.274-1.413-.675-1.673-1.871-6.212-7.613-3.877-12.578Z" style="fill:#263238;"></path><path d="M281.747,148.137s3.258,.879,4.498-1.178c-.494,3.01-2.345,2.929-4.498,1.178Z" style="fill:#263238;"></path><path d="M261.494,161.35c-1.217,1.894-3.136,3.228-5.336,3.707-2.913,.603-4.183-2.055-3.204-4.678,.876-2.392,3.46-5.578,6.308-5.003,2.848,.575,3.677,3.647,2.232,5.974Z" style="fill:#ffbbb5;"></path><g><path d="M255.703,266.552s10.488,74.197,16.379,99.902c6.446,28.245,29.652,76.693,29.652,76.693l17.284-5.561s-14.708-38.841-19.912-66.578c-3.517-18.894-6.389-57.846-6.556-78.558-.132-16.359-5.776-26.743-5.776-26.743l-31.071,.844Z" style="fill:#407BFF;"></path><path d="M265.479,300.24c.736,20.503,1.148,22.929,1.042,38.761-2.901-16.967-5.912-36.618-8.082-51.16l7.041,12.399Z" style="isolation:isolate; opacity:.2;"></path><path d="M246.411,453.732l16.058-.879s-2.817-57.632-3.232-85.721c-.131-8.545,.82-20.562,2.259-33.474,1.807-16.278,2.766-22.782,5.149-43.347,1.695-14.664,3.291-24.136,3.291-24.136l-37.892-.188s.987,72.396,3.046,99.834c2.169,28.49,11.319,87.911,11.319,87.911Z" style="fill:#407BFF;"></path><polygon points="245.502 454.754 263.679 454.185 263.506 448.313 245.197 448.717 245.502 454.754" style="fill:#407BFF;"></polygon><polygon points="245.502 454.754 263.679 454.185 263.506 448.313 245.197 448.717 245.502 454.754" style="isolation:isolate; opacity:.3;"></polygon><polygon points="301.421 444.232 319.688 437.578 317.698 432.113 298.829 437.575 301.421 444.232" style="fill:#407BFF;"></polygon><polygon points="301.421 444.232 319.688 437.578 317.698 432.113 298.829 437.575 301.421 444.232" style="isolation:isolate; opacity:.3;"></polygon><path d="M274.168,288.718l-8.689,11.522s6.938-1.852,8.689-11.522Z" style="isolation:isolate; opacity:.2;"></path></g><g><path d="M289.402,191.432c-6.003,34.244,7.308,85.977,7.183,93.079-11.782-16.976-53.19,7.362-67.71,7.734,6.887-60.357,10.816-105.001,10.816-105.001,0,0,3.048-.797,7.215-1.499,1.306-.22,2.723-.422,4.195-.599,.804-.101,1.641-.178,2.478-.256,6.83-.314,13.672-.241,20.494,.22,1.29,.072,2.613,.146,3.886,.318,1.273,.172,2.336,.265,3.431,.405,1.686,.229,3.247,.473,4.573,.694,2.293,.389,3.836,2.564,3.447,4.858l-.008,.047Z" style="fill:#263238;"></path><path d="M289.402,191.432c-6.003,34.244,7.308,85.977,7.183,93.079-11.782-16.976-53.19,7.362-67.71,7.734,6.887-60.357,10.816-105.001,10.816-105.001,0,0,3.048-.797,7.215-1.499,1.306-.22,2.723-.422,4.195-.599,.804-.101,1.641-.178,2.478-.256,6.83-.314,13.672-.241,20.494,.22,1.29,.072,2.613,.146,3.886,.318,1.273,.172,2.336,.265,3.431,.405,1.686,.229,3.247,.473,4.573,.694,2.293,.389,3.836,2.564,3.447,4.858l-.008,.047Z" style="fill:#fff; opacity:.2;"></path><path d="M238.479,202.59c-.266,1.751-.508,3.661-.735,5.718,3.202-.136,7.116-.728,8.856-2.476,2.126-2.221-3.951-2.976-8.121-3.242Z" style="isolation:isolate; opacity:.2;"></path></g><path d="M235.853,130.755s3.23,1.037,5.71-.274c2.48-1.311,4.809-1.698,6.586-2.8,1.776-1.102-1.01-1.544-2.541-1.479-1.53,.065-3.265,.123-3.128-1.034,.137-1.157,6.11-9.205,6.117-10.831,.008-1.626-1.366-.626-1.366-.626,0,0,1.398-1.994,.759-2.763-.166-.2-.876-.395-1.655,.414-1.753,1.819-5.237,5.827-5.237,5.827,.205-.226,4.151-5.479,4.64-6.343,.638-1.129,.363-1.987-.303-2.336-.949-.497-6.064,5.851-6.467,5.967,0,0,3.067-3.556,2.583-4.85-.484-1.294-2.537,.839-3.99,3.063-1.332,2.039-4.479,5.691-5.631,7.895-1.421,2.716-1.764,4.859,.004,7.125,1.768,2.266,3.92,3.043,3.92,3.043Z" style="fill:#ffbbb5;"></path><path d="M230.572,125.175s-17.305,24.596-18.65,34.052c-1.345,9.456,20.001,36.946,20.001,36.946l14.891-7.191s-20.655-24.055-20.5-30.075c.154-6.02,12.846-30.3,12.846-30.3l-8.588-3.432Z" style="fill:#ffbbb5;"></path><path d="M237.818,202.532c-2.888-2.32-16.117-15.686-16.117-15.686l10.726-18.046s15.31,8.699,24.264,15.388c9.176,6.859-9.601,20.134-18.872,18.344Z" style="fill:#263238;"></path><path d="M237.818,202.532c-2.888-2.32-16.117-15.686-16.117-15.686l10.726-18.046s15.31,8.699,24.264,15.388c9.176,6.859-9.601,20.134-18.872,18.344Z" style="fill:#fff; opacity:.2;"></path></g></svg>
