<svg width="1598" height="386" viewBox="0 0 1598 386" fill="none" xmlns="http://www.w3.org/2000/svg">
<path d="M439.939 170.641C435.838 162.049 421.181 137.791 423.654 128.39C428.351 110.527 444.495 138.588 446.894 143.003C452.339 153.022 464.723 175.999 462.983 187.182C459.496 209.608 443.274 177.627 439.939 170.641Z" fill="#4133EB"/>
<path d="M910.143 367.695C920.296 367.262 950.072 363.39 958.669 368.913C975.005 379.408 940.853 383.188 935.531 383.663C923.451 384.738 895.79 387.114 885.129 381.58C863.75 370.48 901.887 368.047 910.143 367.695Z" fill="#4133EB"/>
<path d="M119.789 1.72256C129.942 1.28915 159.718 -2.58307 168.315 2.93987C184.651 13.4355 150.499 17.2158 145.176 17.6903C133.097 18.7658 105.435 21.1416 94.7748 15.607C73.396 4.50764 111.533 2.07393 119.789 1.72256Z" fill="#4133EB"/>
<path d="M1398.57 152.77C1408.72 152.337 1438.5 148.465 1447.1 153.988C1463.43 164.483 1429.28 168.264 1423.96 168.738C1411.88 169.814 1384.21 172.189 1373.56 166.655C1352.18 155.556 1390.31 153.122 1398.57 152.77Z" fill="#4133EB"/>
<path d="M31.7066 6.77042C41.8613 6.337 71.6398 2.46478 80.2403 7.98772C96.5727 18.4834 62.4215 22.2637 57.1028 22.7382C45.0176 23.8137 17.353 26.1894 6.69647 20.6549C-14.6843 9.55552 23.4536 7.12179 31.7066 6.77042Z" fill="#4133EB"/>
<path d="M567.092 289.557C558.029 285.305 530.063 275.099 525.534 266.376C516.93 249.8 548.656 262.081 553.538 264.095C564.618 268.666 589.948 279.209 596.264 288.883C608.931 308.283 574.46 293.014 567.092 289.557Z" fill="#4133EB"/>
<path d="M392.152 102.285C383.742 95.6978 357.223 78.233 354.303 68.4583C348.754 49.8838 378.7 70.386 383.284 73.663C393.689 81.1007 417.455 98.1959 422.013 109.38C431.153 131.81 398.989 107.641 392.152 102.285Z" fill="#4133EB"/>
<path d="M817.056 361.488C827.953 363.039 860.443 365.109 868.466 372.028C883.711 385.178 846.581 382.175 840.819 381.597C827.739 380.286 797.806 377.201 787.59 369.872C767.1 355.172 808.196 360.228 817.056 361.488Z" fill="#4133EB"/>
<path d="M212.853 3.86183C223.75 5.41268 256.24 7.48253 264.263 14.402C279.509 27.5517 242.379 24.549 236.616 23.9711C223.536 22.6602 193.603 19.5754 183.387 12.2457C162.897 -2.45392 203.994 2.60171 212.853 3.86183Z" fill="#4133EB"/>
<path d="M653.394 327.042C643.493 322.559 613.149 311.633 607.725 302.818C597.417 286.067 631.889 299.162 637.203 301.301C649.264 306.156 676.84 317.347 684.226 327.157C699.039 346.833 661.443 330.685 653.394 327.042Z" fill="#4133EB"/>
<path d="M326.393 56.9785C318.926 53.8367 311.744 48.5527 304.857 44.2945C297.809 39.9365 284.47 33.49 279.147 28.159C263.89 12.8797 292.432 20.1936 301.442 25.33C313.769 32.3584 331.352 40.2066 342.344 48.8171C359.841 62.5236 338.499 63.0996 326.393 56.9785C328.271 57.9281 319.724 54.1726 326.393 56.9785Z" fill="#4133EB"/>
<path d="M750.796 365.915C742.902 363.919 734.942 359.749 727.44 356.554C719.762 353.286 705.526 348.891 699.395 344.393C681.823 331.504 711.231 334.464 720.976 338.21C734.307 343.338 752.968 348.485 765.237 355.388C784.768 366.375 763.762 370.173 750.796 365.915C752.807 366.575 743.747 364.133 750.796 365.915Z" fill="#4133EB"/>
<path d="M1302.62 179.714C1312.44 175.457 1340.34 160.282 1350.63 162.772C1370.19 167.501 1337.96 184.223 1332.9 186.71C1321.42 192.353 1295.09 205.188 1282.76 203.46C1258.06 199.996 1294.64 183.174 1302.62 179.714Z" fill="#4133EB"/>
<path d="M492.073 219.204C500.277 227.252 521.122 245.489 518.919 257.156C516.435 270.317 499.281 252.079 494.351 246.861C486.364 238.407 461.583 220.632 461.311 208.633C460.863 188.848 486.641 213.874 492.073 219.204Z" fill="#4133EB"/>
<path d="M1513.58 169.316C1502.33 168.745 1440.34 169.37 1459.48 154.456C1474.5 142.746 1515.57 154.607 1535.26 150.265C1528.91 142.494 1518.74 136.715 1516.45 127.538C1513.76 116.791 1520.21 114.076 1533.26 120.243C1543.44 125.048 1551.26 133.595 1561.94 138.851C1573.77 144.674 1591.73 150.859 1596.35 160.574C1600.71 169.754 1593.12 174.313 1583.22 180.018C1571.35 186.856 1561.29 197.953 1548.18 203.506C1535.7 208.787 1526.82 206.564 1528.1 196.603C1529.21 187.944 1542.95 178.129 1549.78 171.077C1547.32 170.542 1513.82 167.821 1513.58 169.316C1513.62 169.062 1501.02 168.678 1513.58 169.316Z" fill="#4133EB"/>
<path d="M975.255 344.437C973.117 341.246 971.313 337.979 969.842 334.637C968.372 331.294 967.318 327.83 966.682 324.244C965.995 321.27 965.891 318.191 966.37 315.008C966.655 313.829 967.003 312.687 967.416 311.583C967.828 310.479 968.414 309.462 969.172 308.531C970.353 306.855 972.157 305.709 974.585 305.092C977.013 304.476 979.52 304.837 982.105 306.175C983.561 306.973 984.8 307.963 985.823 309.147C986.81 310.277 987.442 311.678 987.716 313.349C987.91 313.752 987.956 314.165 987.854 314.586C987.823 315.113 987.612 315.486 987.22 315.703C986.792 315.867 986.314 315.841 985.785 315.623C985.586 315.442 985.405 315.287 985.243 315.158C985.08 315.03 984.899 314.874 984.701 314.693C983.616 313.762 982.476 313.263 981.28 313.197C980.049 313.078 978.748 313.142 977.379 313.39C976.916 313.501 976.615 313.741 976.478 314.109C976.305 314.424 976.15 314.765 976.012 315.133C975.773 315.922 975.625 316.733 975.569 317.567C975.513 318.4 975.485 319.218 975.485 320.02C975.577 321.647 975.806 323.307 976.172 325.001C976.559 326.61 977.047 328.199 977.638 329.768C979.419 334.032 981.602 338.037 984.188 341.783C986.794 345.444 989.977 348.821 993.738 351.915C995.794 353.839 998.321 355.319 1001.32 356.356C1002.62 356.803 1003.99 357.025 1005.45 357.02C1006.98 357.122 1008.11 356.86 1008.84 356.235C1009.59 355.526 1010.08 354.528 1010.29 353.242C1010.51 352.316 1010.63 351.451 1010.63 350.649C1010.59 349.794 1010.57 348.965 1010.57 348.162C1010.53 347.75 1010.5 347.364 1010.49 347.005C1010.53 346.615 1010.57 346.267 1010.6 345.961C1010.9 344.698 1011.69 344.042 1012.96 343.993C1013.55 343.957 1014.1 344.09 1014.61 344.391C1015.18 344.662 1015.56 345.067 1015.77 345.608C1016.48 347.696 1016.98 349.824 1017.28 351.991C1017.55 354.106 1017.25 356.24 1016.39 358.395C1014.9 362.137 1011.98 364.305 1007.62 364.899C1005.49 365.277 1003.35 365.295 1001.2 364.954C999.112 364.581 997.082 363.957 995.112 363.079C993.051 362.18 991.178 361.103 989.493 359.849C987.773 358.541 986.147 357.145 984.615 355.66C982.757 353.918 981.057 352.125 979.515 350.281C978.029 348.407 976.609 346.458 975.255 344.437Z" fill="#4133EB"/>
<path d="M1034.13 343.966C1034.63 344.711 1035.17 345.467 1035.76 346.234C1036.35 347.001 1036.88 347.84 1037.33 348.754C1037.48 348.966 1037.65 349.232 1037.87 349.551C1038.05 349.817 1038.21 350.125 1038.37 350.476C1038.92 351.633 1038.76 352.597 1037.89 353.368C1036.81 354.042 1035.7 354.22 1034.56 353.901C1033.88 353.692 1033.26 353.384 1032.68 352.977C1032.15 352.538 1031.6 352.115 1031.02 351.707C1030.15 350.874 1029.32 350.025 1028.51 349.161C1027.75 348.265 1027.03 347.354 1026.33 346.428C1024.04 343.689 1021.85 340.887 1019.78 338.024C1017.77 335.13 1015.72 332.251 1013.65 329.387C1010.78 325.216 1007.93 321.072 1005.09 316.954C1002.31 312.805 999.546 308.614 996.788 304.381C996.538 304.009 996.307 303.663 996.093 303.344C995.9 302.941 995.734 302.522 995.597 302.087C995.378 301.187 995.416 300.327 995.712 299.507C995.971 298.634 996.521 297.964 997.361 297.499C999.096 296.537 1000.8 296.793 1002.48 298.269C1002.97 298.655 1003.38 299.087 1003.7 299.566C1006.24 302.899 1008.69 306.279 1011.06 309.705C1013.49 313.101 1015.89 316.511 1018.26 319.938C1018.51 320.31 1019.1 321.188 1020.03 322.571C1020.95 323.954 1022.06 325.602 1023.34 327.517C1024.59 329.379 1025.88 331.363 1027.21 333.468C1028.6 335.542 1029.92 337.51 1031.17 339.372C1032.38 341.181 1033.36 342.712 1034.13 343.966Z" fill="#4133EB"/>
<path d="M1024.3 305.758C1023.14 307.35 1021.6 307.913 1019.68 307.448C1019 307.24 1018.37 306.821 1017.8 306.191C1017.22 305.562 1016.86 304.851 1016.71 304.057C1016.59 303.179 1016.77 302.31 1017.27 301.45C1017.73 300.537 1018.36 299.863 1019.14 299.429C1020.77 298.529 1022.34 298.641 1023.86 299.767C1024.57 300.25 1025.04 300.899 1025.28 301.715C1025.54 302.447 1025.52 303.222 1025.23 304.042C1025.14 304.379 1025.02 304.705 1024.84 305.02C1024.69 305.251 1024.51 305.497 1024.3 305.758ZM1049.84 337.007C1050.81 338 1050.98 338.999 1050.35 340.006C1049.66 341.043 1048.58 341.495 1047.11 341.363C1046.42 341.239 1045.79 340.999 1045.25 340.645C1044.71 340.29 1044.14 339.909 1043.56 339.501C1042.9 338.85 1042.21 338.172 1041.51 337.467C1040.86 336.731 1040.23 336.022 1039.62 335.339C1037.51 332.866 1035.45 330.362 1033.44 327.826C1031.46 325.207 1029.68 322.505 1028.13 319.721C1027.79 319.105 1027.48 318.474 1027.2 317.827C1026.89 317.126 1026.75 316.401 1026.78 315.652C1026.71 314.965 1026.79 314.338 1027.02 313.77C1027.31 313.172 1027.79 312.686 1028.46 312.314C1029.79 311.653 1031.14 311.779 1032.52 312.692C1033.66 313.37 1034.61 314.268 1035.36 315.385L1042.73 326.395C1043.1 327.065 1043.56 327.867 1044.11 328.802C1044.66 329.738 1045.29 330.737 1046.01 331.801C1046.58 332.652 1047.16 333.53 1047.77 334.434C1048.43 335.307 1049.12 336.165 1049.84 337.007Z" fill="#4133EB"/>
<path d="M1075.63 325.005C1075.69 325.555 1075.72 326.051 1075.71 326.495C1075.75 326.907 1075.74 327.35 1075.68 327.825C1075.71 328.68 1075.69 329.567 1075.62 330.484C1075.5 331.349 1075.28 332.165 1074.95 332.932C1074.23 334.718 1073.09 336.004 1071.55 336.789C1070 337.574 1068.23 337.791 1066.23 337.441C1065.4 337.242 1064.6 337.027 1063.84 336.797C1063.09 336.482 1062.38 336.11 1061.71 335.68C1057.13 332.746 1053.48 329.3 1050.75 325.341C1048.04 321.299 1046.42 316.693 1045.87 311.525C1045.65 309.02 1045.95 306.775 1046.77 304.789C1047.67 302.466 1048.92 300.606 1050.52 299.209C1052.18 297.781 1054.38 296.999 1057.13 296.861C1057.48 296.812 1057.78 296.752 1058.04 296.681C1058.27 296.557 1058.42 296.326 1058.5 295.99C1058.84 293.977 1060.08 292.851 1062.23 292.611C1063.3 292.38 1064.25 292.476 1065.07 292.897C1065.94 293.287 1066.72 293.876 1067.4 294.665L1068.04 295.622C1072.35 302.28 1076.58 308.942 1080.74 315.609C1083.01 319.235 1085.3 322.929 1087.59 326.692C1089.88 330.456 1092.35 334.084 1094.99 337.577C1096.35 339.376 1097.74 341.16 1099.15 342.929C1100.57 344.697 1101.93 346.497 1103.23 348.327C1103.41 348.593 1103.6 348.886 1103.82 349.205C1104.07 349.577 1104.24 349.954 1104.34 350.335C1105.07 351.537 1104.9 352.654 1103.83 353.687C1102.88 354.574 1101.72 354.782 1100.33 354.312C1099.65 354.104 1099 353.812 1098.36 353.435C1097.81 353.08 1097.31 352.668 1096.84 352.198C1095.1 350.754 1093.43 349.235 1091.83 347.644C1090.23 346.053 1088.77 344.384 1087.44 342.638C1086.46 341.286 1085.51 339.919 1084.58 338.536C1083.69 337.206 1082.8 335.876 1081.91 334.546C1081.04 333.132 1080.17 331.718 1079.3 330.304C1078.43 328.89 1077.53 327.492 1076.6 326.109C1076.49 325.949 1076.37 325.763 1076.23 325.55C1076.08 325.338 1075.89 325.156 1075.63 325.005ZM1066.1 328.318C1066.32 327.835 1066.41 327.456 1066.38 327.181C1066.4 326.875 1066.42 326.611 1066.42 326.39C1066.3 325.29 1066.14 324.249 1065.94 323.265C1065.77 322.196 1065.59 321.128 1065.41 320.06C1064.95 317.763 1064.34 315.545 1063.6 313.404C1062.86 311.263 1062.04 309.126 1061.15 306.994C1060.76 306.187 1060.42 305.682 1060.13 305.478C1059.81 305.221 1059.19 305.161 1058.29 305.299C1057.64 305.365 1057.13 305.576 1056.75 305.931C1056.34 306.232 1056 306.64 1055.73 307.154C1055.14 308.573 1055.01 310.145 1055.32 311.869C1055.7 315.304 1056.83 318.363 1058.7 321.045C1060.57 323.726 1063.04 326.151 1066.1 328.318Z" fill="#4133EB"/>
<path d="M1109.76 302.804C1109.78 303.3 1109.76 303.786 1109.7 304.26C1109.69 304.703 1109.67 305.189 1109.64 305.716C1109.6 306.465 1109.51 307.246 1109.36 308.057C1109.23 308.784 1109.03 309.515 1108.76 310.251C1107.77 312.552 1106.28 314.066 1104.31 314.794C1102.34 315.521 1100.42 315.747 1098.55 315.473C1096.22 315.087 1094.17 314.257 1092.39 312.98C1088.58 310.498 1085.36 307.58 1082.72 304.224C1080.15 300.838 1078.11 297.156 1076.59 293.18C1075.83 291.345 1075.73 289.65 1076.3 288.094C1076.52 287.389 1076.85 286.801 1077.3 286.331C1077.72 285.808 1078.35 285.535 1079.17 285.513C1079.93 285.384 1080.63 285.508 1081.27 285.885C1081.87 286.209 1082.36 286.663 1082.76 287.248C1083.08 287.727 1083.4 288.205 1083.72 288.684C1084.04 289.163 1084.31 289.631 1084.54 290.087C1085.42 291.86 1086.43 293.598 1087.57 295.3C1088.68 296.949 1089.91 298.562 1091.28 300.14C1092.17 301.248 1093.12 302.325 1094.13 303.371C1095.16 304.333 1096.31 305.191 1097.58 305.944C1097.84 306.095 1098.05 306.192 1098.24 306.237C1098.97 306.635 1099.51 306.811 1099.86 306.762C1100.21 306.713 1100.58 306.358 1100.99 305.698C1101.78 304.239 1102.14 302.723 1102.09 301.149C1102.25 299.673 1102.16 298.226 1101.83 296.807C1101.49 295.389 1101.07 294.017 1100.57 292.691C1099.79 290.497 1098.82 288.369 1097.67 286.308C1096.52 284.247 1095.26 282.248 1093.89 280.311C1092.78 278.662 1092.6 277.013 1093.34 275.364C1093.96 273.998 1095.08 273.156 1096.71 272.837C1098.4 272.486 1099.99 273.027 1101.48 274.458C1102.28 275.185 1102.98 276.001 1103.58 276.905C1104.21 277.725 1104.77 278.618 1105.26 279.584C1107.06 282.381 1108.86 285.178 1110.65 287.975C1112.41 290.719 1114.3 293.427 1116.32 296.1C1117.33 297.368 1118.28 298.735 1119.19 300.202C1120.09 301.67 1120.98 303.11 1121.85 304.524C1122.47 305.787 1122.38 306.969 1121.58 308.068C1121.16 308.592 1120.6 308.902 1119.9 309C1119.19 309.097 1118.51 309.042 1117.83 308.834C1117.24 308.648 1116.73 308.457 1116.29 308.262C1115.88 307.983 1115.49 307.688 1115.13 307.378C1114.18 306.66 1113.27 305.926 1112.38 305.177C1111.56 304.397 1110.68 303.606 1109.76 302.804Z" fill="#4133EB"/>
<path d="M1119.42 287.489C1117.75 284.989 1116.51 282.394 1115.71 279.703C1114.92 276.928 1114.4 274.082 1114.13 271.165C1114.04 269.76 1114.09 268.346 1114.29 266.923C1114.49 265.5 1114.89 264.148 1115.49 262.867C1116.3 261.102 1117.44 259.705 1118.9 258.677C1120.51 257.639 1122.25 257.147 1124.13 257.2C1126.01 257.253 1127.77 257.769 1129.43 258.748C1131.05 259.675 1132.28 261.066 1133.15 262.924C1133.41 263.433 1133.64 264.001 1133.82 264.626C1134.01 265.251 1134.13 265.88 1134.17 266.514C1134.33 268.248 1134.32 270.005 1134.13 271.787C1133.96 273.485 1133.48 275.174 1132.69 276.854C1132.18 277.936 1131.57 278.969 1130.85 279.953C1130.14 280.853 1129.21 281.587 1128.06 282.155C1127.67 282.372 1127.45 282.565 1127.41 282.733C1127.43 282.871 1127.56 283.126 1127.81 283.498C1128.32 284.38 1128.95 285.2 1129.69 285.958C1130.42 286.716 1131.22 287.443 1132.07 288.139C1132.87 288.644 1133.44 288.872 1133.79 288.823C1134.14 288.774 1134.54 288.336 1134.98 287.507C1135.69 286.385 1136.16 285.139 1136.4 283.769C1136.62 283.064 1136.87 282.413 1137.16 281.814C1137.41 281.163 1137.67 280.511 1137.92 279.859C1138.01 279.522 1138.2 279.123 1138.5 278.662C1139.17 277.931 1139.92 277.622 1140.76 277.738C1141.63 277.768 1142.35 278.209 1142.92 279.06C1143.17 279.433 1143.39 279.821 1143.58 280.224C1143.77 280.627 1143.94 281.046 1144.08 281.481C1144.7 283.905 1144.84 286.235 1144.5 288.469C1144.15 290.704 1143.06 292.803 1141.23 294.767C1138.57 297.334 1135.32 298.152 1131.47 297.222C1129.46 296.735 1127.72 295.913 1126.25 294.756C1124.78 293.599 1123.39 292.327 1122.08 290.94C1121.63 290.386 1121.19 289.831 1120.74 289.277C1120.31 288.639 1119.87 288.043 1119.42 287.489ZM1126.31 265.618C1126.06 265.245 1125.82 264.942 1125.59 264.707C1125.32 264.419 1125.01 264.299 1124.66 264.348C1124.12 264.352 1123.71 264.765 1123.41 265.585C1123.26 265.815 1123.15 266.057 1123.09 266.31C1123.03 266.562 1122.96 266.857 1122.88 267.194C1122.72 268.449 1122.73 269.721 1122.9 271.011C1123.13 272.27 1123.38 273.513 1123.67 274.741C1123.64 275.269 1123.86 275.546 1124.34 275.572C1124.52 275.617 1124.7 275.592 1124.87 275.499C1125.06 275.322 1125.19 275.175 1125.27 275.06C1126.89 272.334 1127.34 269.388 1126.6 266.223C1126.59 266.085 1126.54 265.963 1126.47 265.857C1126.37 265.698 1126.31 265.618 1126.31 265.618Z" fill="#4133EB"/>
<path d="M1154.95 233.328C1153.79 234.92 1152.25 235.483 1150.33 235.018C1149.65 234.809 1149.02 234.391 1148.45 233.761C1147.87 233.132 1147.51 232.42 1147.36 231.627C1147.24 230.749 1147.42 229.88 1147.92 229.02C1148.38 228.107 1149.01 227.433 1149.79 226.998C1151.42 226.098 1152.99 226.211 1154.51 227.337C1155.22 227.82 1155.69 228.469 1155.93 229.285C1156.19 230.016 1156.17 230.792 1155.88 231.612C1155.8 231.949 1155.67 232.275 1155.5 232.59C1155.34 232.82 1155.16 233.066 1154.95 233.328ZM1180.49 264.577C1181.46 265.57 1181.63 266.569 1181 267.576C1180.31 268.613 1179.23 269.065 1177.76 268.932C1177.07 268.808 1176.45 268.569 1175.9 268.215C1175.36 267.86 1174.79 267.479 1174.21 267.071C1173.55 266.42 1172.86 265.742 1172.16 265.037C1171.51 264.301 1170.89 263.592 1170.27 262.909C1168.16 260.436 1166.1 257.932 1164.09 255.396C1162.11 252.777 1160.33 250.075 1158.78 247.291C1158.44 246.675 1158.13 246.044 1157.85 245.396C1157.54 244.696 1157.4 243.971 1157.43 243.222C1157.36 242.535 1157.44 241.908 1157.67 241.34C1157.96 240.742 1158.44 240.256 1159.11 239.884C1160.44 239.223 1161.79 239.349 1163.17 240.262C1164.31 240.94 1165.26 241.838 1166.01 242.955L1173.38 253.965C1173.75 254.635 1174.21 255.437 1174.76 256.372C1175.31 257.307 1175.94 258.307 1176.66 259.371C1177.23 260.222 1177.82 261.099 1178.42 262.004C1179.08 262.877 1179.77 263.735 1180.49 264.577Z" fill="#4133EB"/>
<path d="M1182.39 254.221C1180.56 251.593 1179.34 248.913 1178.74 246.182C1178.19 243.421 1178.05 240.621 1178.29 237.784C1178.58 235 1179.74 232.427 1181.76 230.064C1182.65 229.208 1183.66 228.538 1184.79 228.055C1185.89 227.519 1187.14 227.263 1188.54 227.29C1189.2 227.361 1189.8 227.505 1190.33 227.722C1190.91 227.908 1191.42 228.209 1191.85 228.626C1193.02 229.8 1193.48 231.046 1193.21 232.363C1192.9 233.626 1192.01 234.482 1190.55 234.93C1189.68 235.121 1189.03 235.477 1188.62 236.001C1188.2 236.524 1187.9 237.164 1187.72 237.922C1186.73 243.792 1188.48 248.805 1192.95 252.963C1194.38 254.288 1195.62 254.877 1196.67 254.731C1197.72 254.585 1198.78 253.747 1199.82 252.217C1200.57 251.149 1200.98 249.934 1201.07 248.573C1201 248.245 1201 247.955 1201.06 247.702C1201.12 247.449 1201.19 247.154 1201.27 246.817C1201.41 245.869 1201.97 245.337 1202.97 245.221C1204.15 245.15 1205.01 245.514 1205.54 246.311C1206.44 247.42 1206.93 248.608 1207.01 249.875C1207.11 251.059 1207.05 252.294 1206.84 253.579C1206.45 255.179 1205.81 256.629 1204.92 257.928C1204.08 259.196 1203.03 260.393 1201.79 261.519C1200.67 262.362 1199.46 262.96 1198.16 263.315C1196.88 263.586 1195.51 263.544 1194.04 263.19C1192.21 262.747 1190.56 262.057 1189.09 261.122C1187.64 260.103 1186.29 258.953 1185.05 257.672C1184.55 257.149 1184.05 256.584 1183.57 255.976C1183.09 255.369 1182.69 254.784 1182.39 254.221Z" fill="#4133EB"/>
<path d="M1196.94 210.049C1195.78 211.64 1194.24 212.203 1192.32 211.738C1191.64 211.53 1191.02 211.111 1190.44 210.482C1189.87 209.852 1189.5 209.141 1189.36 208.347C1189.23 207.47 1189.41 206.601 1189.91 205.741C1190.38 204.827 1191 204.154 1191.78 203.719C1193.41 202.819 1194.98 202.932 1196.5 204.057C1197.21 204.541 1197.68 205.19 1197.92 206.005C1198.18 206.737 1198.16 207.513 1197.87 208.333C1197.79 208.67 1197.66 208.996 1197.49 209.31C1197.33 209.541 1197.15 209.787 1196.94 210.049ZM1222.48 241.297C1223.45 242.29 1223.62 243.29 1222.99 244.296C1222.31 245.333 1221.23 245.786 1219.76 245.653C1219.06 245.529 1218.44 245.29 1217.89 244.935C1217.35 244.581 1216.79 244.199 1216.21 243.792C1215.54 243.14 1214.85 242.462 1214.15 241.757C1213.51 241.021 1212.88 240.312 1212.27 239.63C1210.15 237.156 1208.09 234.652 1206.08 232.117C1204.1 229.497 1202.33 226.796 1200.77 224.012C1200.43 223.396 1200.13 222.764 1199.85 222.117C1199.53 221.417 1199.39 220.692 1199.43 219.943C1199.35 219.255 1199.43 218.628 1199.66 218.061C1199.95 217.462 1200.43 216.977 1201.11 216.604C1202.43 215.944 1203.78 216.07 1205.16 216.983C1206.3 217.661 1207.25 218.558 1208 219.675L1215.37 230.686C1215.75 231.355 1216.21 232.157 1216.76 233.093C1217.31 234.028 1217.94 235.027 1218.65 236.091C1219.22 236.942 1219.81 237.82 1220.41 238.724C1221.07 239.597 1221.76 240.455 1222.48 241.297Z" fill="#4133EB"/>
<path d="M1234.55 204.407L1226.81 192.838C1225.19 190.307 1223.56 187.818 1221.92 185.371C1220.34 182.894 1218.78 180.4 1217.26 177.891C1216.23 176.127 1215.18 174.337 1214.12 172.519C1213.07 170.618 1212.08 168.727 1211.12 166.848C1210.52 165.722 1210.2 164.662 1210.15 163.669C1209.91 161.83 1210.55 160.602 1212.06 159.985C1212.88 159.604 1213.68 159.486 1214.47 159.632C1215.26 159.779 1216 160.135 1216.68 160.703C1217.43 161.239 1218.02 161.895 1218.46 162.671C1218.96 163.415 1219.43 164.175 1219.87 164.951C1220.65 166.343 1221.49 167.704 1222.38 169.034C1223.23 170.31 1224.06 171.602 1224.86 172.91C1226.19 175.015 1227.4 177.156 1228.47 179.333C1229.6 181.478 1230.73 183.623 1231.86 185.769C1232.48 186.811 1233.1 187.852 1233.72 188.894C1234.4 189.904 1235 190.92 1235.53 191.939C1236.34 193.606 1237.22 195.268 1238.18 196.926C1239.19 198.553 1240.1 200.199 1240.91 201.866C1241.41 202.832 1241.93 203.783 1242.48 204.718C1243.03 205.654 1243.57 206.631 1244.1 207.65C1245.1 209.499 1246.13 211.374 1247.17 213.275C1248.24 215.093 1249.26 216.968 1250.25 218.9C1250.5 219.273 1250.69 219.676 1250.83 220.111C1250.93 220.492 1251.02 220.915 1251.11 221.381C1251.23 222.48 1250.82 223.183 1249.87 223.489C1249.08 223.923 1248.27 223.793 1247.42 223.097C1246.73 222.529 1246.15 221.942 1245.66 221.335C1245.23 220.697 1244.79 220.032 1244.33 219.34C1242.87 217.159 1241.35 214.899 1239.78 212.558C1238.18 210.165 1236.44 207.448 1234.55 204.407ZM1260.52 233.887C1260.71 234.29 1260.87 234.64 1260.99 234.937C1261.15 235.288 1261.28 235.653 1261.38 236.034C1261.69 237.759 1261.03 239.002 1259.39 239.765C1258.7 240 1257.93 239.991 1257.07 239.739C1256.26 239.455 1255.63 238.968 1255.17 238.276C1254.67 237.532 1254.33 236.736 1254.14 235.889C1254.05 235.065 1254.24 234.265 1254.72 233.489C1255.12 232.469 1255.84 231.886 1256.89 231.74C1257.98 231.646 1258.88 232.021 1259.6 232.863C1259.86 233.014 1260.01 233.184 1260.06 233.375C1260.17 233.534 1260.32 233.705 1260.52 233.887Z" fill="#4133EB"/>
</svg>
