<svg width="1643" height="561" viewBox="0 0 1643 561" fill="none" xmlns="http://www.w3.org/2000/svg">
<path d="M36.952 28.1055C43.8607 21.8219 62.451 1.40458 72.078 0.589609C90.3723 -0.95877 68.6249 21.9548 65.1623 25.4375C57.3037 33.3411 39.2493 51.3751 28.1548 53.3901C5.90415 57.4319 31.3348 33.2137 36.952 28.1055Z" fill="#4133EB"/>
<path d="M451.559 417.66C444.566 411.4 422.126 394.9 420.574 385.401C417.622 367.351 442.869 386.747 446.718 389.852C455.453 396.899 475.395 413.1 478.295 423.942C484.111 445.684 457.245 422.749 451.559 417.66Z" fill="#4133EB"/>
<path d="M118.589 207.675C127.692 211.19 155.428 219.134 160.79 227.47C170.979 243.312 139.431 233.599 134.56 231.981C123.506 228.308 98.2269 219.816 91.0542 210.675C76.6698 192.343 111.186 204.815 118.589 207.675Z" fill="#4133EB"/>
<path d="M22.3897 89.1837C20.638 98.7839 18.0192 127.516 10.8326 134.341C-2.82449 147.312 0.819112 114.505 1.49803 109.417C3.04003 97.8716 6.65557 71.4508 14.2948 62.6956C29.6149 45.1376 23.8151 81.3773 22.3897 89.1837Z" fill="#4133EB"/>
<path d="M1437.19 411.711C1446.94 411.281 1475.53 407.434 1483.79 412.92C1499.47 423.345 1466.68 427.1 1461.57 427.572C1449.97 428.64 1423.41 431 1413.17 425.502C1392.64 414.478 1429.26 412.06 1437.19 411.711Z" fill="#4133EB"/>
<path d="M1343.81 413.711C1353.44 413.281 1381.68 409.434 1389.84 414.92C1405.33 425.345 1372.94 429.1 1367.9 429.572C1356.44 430.64 1330.2 433 1320.09 427.502C1299.82 416.478 1335.99 414.06 1343.81 413.711Z" fill="#4133EB"/>
<path d="M39.0029 161.818C46.5583 167.997 70.4366 184.19 72.9358 193.785C77.6767 212.01 50.7293 192.949 46.6083 189.896C37.246 182.957 15.8715 167.008 11.9084 156.089C3.95375 134.186 32.863 156.795 39.0029 161.818Z" fill="#4133EB"/>
<path d="M601.64 502.234C592.177 500.1 563.662 496.371 557.383 488.842C545.452 474.535 577.966 479.454 582.998 480.332C594.42 482.326 620.553 486.977 628.724 495.037C645.113 511.2 609.334 503.97 601.64 502.234Z" fill="#4133EB"/>
<path d="M382.873 363.526C374.825 356.937 349.448 339.467 346.653 329.69C341.343 311.11 370 331.618 374.387 334.896C384.343 342.336 407.086 359.436 411.448 370.623C420.194 393.059 389.415 368.884 382.873 363.526Z" fill="#4133EB"/>
<path d="M852.008 543.649C862.501 543.277 893.347 539.728 902.074 544.97C918.655 554.933 883.293 558.38 877.786 558.808C865.285 559.781 836.663 561.925 825.808 556.664C804.038 546.114 843.476 543.952 852.008 543.649Z" fill="#4133EB"/>
<path d="M207.301 242.759C216.933 246.964 246.323 256.999 251.901 265.757C262.499 282.4 229.079 270.308 223.922 268.322C212.216 263.814 185.448 253.415 177.957 243.714C162.934 224.259 199.469 239.341 207.301 242.759Z" fill="#4133EB"/>
<path d="M688.214 524.923C678.148 522.015 647.774 515.917 641.177 507.954C628.639 492.821 663.26 500.432 668.618 501.726C680.778 504.663 708.595 511.468 717.206 520.115C734.475 537.458 696.399 527.288 688.214 524.923Z" fill="#4133EB"/>
<path d="M315.405 314.249C308.264 311.085 301.394 305.763 294.806 301.475C288.065 297.086 275.307 290.593 270.215 285.224C255.621 269.836 282.922 277.202 291.54 282.375C303.331 289.454 320.149 297.358 330.663 306.029C347.399 319.834 326.986 320.414 315.405 314.249C317.202 315.205 309.027 311.423 315.405 314.249Z" fill="#4133EB"/>
<path d="M787.502 550.399C779.779 549.102 771.784 545.619 764.32 543.078C756.681 540.479 742.675 537.336 736.396 533.359C718.397 521.961 746.746 522.29 756.403 525.184C769.615 529.146 787.915 532.647 800.282 538.493C819.969 547.797 800.282 553.519 787.502 550.399C789.484 550.883 780.605 549.24 787.502 550.399Z" fill="#4133EB"/>
<path d="M950.089 531.584C959.48 527.236 986.184 511.737 996.03 514.28C1014.75 519.111 983.905 536.189 979.063 538.73C968.077 544.493 942.877 557.603 931.079 555.838C907.438 552.3 942.449 535.118 950.089 531.584Z" fill="#4133EB"/>
<path d="M515.847 445.09C524.866 451.803 547.42 466.667 547.254 478.577C547.066 492.011 527.979 476.576 522.497 472.163C513.616 465.014 487.44 451.215 485.228 439.359C481.581 419.809 509.875 440.644 515.847 445.09Z" fill="#4133EB"/>
<path d="M1562.98 430.153C1552.28 429.583 1493.24 430.206 1511.47 415.34C1525.78 403.668 1564.88 415.491 1583.63 411.162C1577.59 403.417 1567.9 397.657 1565.72 388.51C1563.16 377.797 1569.3 375.09 1581.73 381.238C1591.42 386.027 1598.87 394.546 1609.04 399.786C1620.3 405.589 1637.4 411.755 1641.8 421.439C1645.95 430.589 1638.73 435.133 1629.3 440.82C1617.99 447.635 1608.42 458.696 1595.93 464.232C1584.05 469.496 1575.59 467.28 1576.81 457.351C1577.87 448.72 1590.95 438.937 1597.45 431.907C1595.12 431.374 1563.21 428.662 1562.98 430.153C1563.02 429.899 1551.03 429.516 1562.98 430.153Z" fill="#4133EB"/>
<path d="M1021.49 505.462C1019.65 502.095 1018.13 498.67 1016.95 495.185C1015.77 491.7 1015 488.113 1014.66 484.424C1014.21 481.356 1014.35 478.213 1015.06 474.994C1015.43 473.808 1015.86 472.663 1016.35 471.559C1016.84 470.456 1017.49 469.451 1018.31 468.542C1019.59 466.897 1021.45 465.824 1023.87 465.325C1026.3 464.826 1028.73 465.327 1031.15 466.829C1032.52 467.719 1033.66 468.795 1034.57 470.056C1035.45 471.26 1035.96 472.721 1036.1 474.439C1036.25 474.861 1036.27 475.283 1036.14 475.707C1036.06 476.243 1035.83 476.612 1035.43 476.812C1035 476.957 1034.53 476.904 1034.03 476.655C1033.85 476.459 1033.68 476.291 1033.53 476.151C1033.38 476.012 1033.22 475.844 1033.04 475.648C1032.05 474.642 1030.97 474.073 1029.8 473.942C1028.61 473.755 1027.33 473.751 1025.97 473.932C1025.51 474.02 1025.19 474.248 1025.03 474.616C1024.84 474.927 1024.66 475.267 1024.5 475.635C1024.2 476.426 1023.99 477.245 1023.87 478.092C1023.76 478.938 1023.67 479.77 1023.6 480.588C1023.57 482.251 1023.66 483.955 1023.89 485.701C1024.15 487.361 1024.5 489.007 1024.96 490.638C1026.38 495.079 1028.2 499.277 1030.45 503.232C1032.72 507.102 1035.57 510.714 1039.02 514.067C1040.88 516.137 1043.25 517.78 1046.1 518.996C1047.34 519.521 1048.67 519.82 1050.09 519.893C1051.58 520.078 1052.71 519.871 1053.48 519.273C1054.27 518.59 1054.82 517.599 1055.13 516.3C1055.42 515.368 1055.59 514.493 1055.66 513.675C1055.69 512.801 1055.73 511.955 1055.8 511.138C1055.78 510.715 1055.78 510.32 1055.8 509.954C1055.88 509.559 1055.94 509.206 1055.99 508.896C1056.38 507.624 1057.21 506.997 1058.46 507.015C1059.04 507.01 1059.57 507.175 1060.04 507.509C1060.57 507.815 1060.92 508.249 1061.08 508.811C1061.62 510.977 1061.95 513.172 1062.07 515.397C1062.17 517.566 1061.71 519.726 1060.7 521.876C1058.96 525.611 1055.93 527.665 1051.61 528.039C1049.5 528.31 1047.4 528.215 1045.33 527.753C1043.31 527.263 1041.36 526.518 1039.5 525.519C1037.55 524.492 1035.8 523.295 1034.25 521.927C1032.67 520.503 1031.18 518.993 1029.8 517.398C1028.11 515.524 1026.58 513.606 1025.22 511.645C1023.91 509.655 1022.66 507.594 1021.49 505.462Z" fill="#4133EB"/>
<path d="M1079.19 508.115C1079.62 508.9 1080.09 509.699 1080.61 510.512C1081.13 511.325 1081.58 512.209 1081.96 513.164C1082.08 513.389 1082.23 513.669 1082.42 514.006C1082.57 514.286 1082.71 514.609 1082.84 514.975C1083.29 516.183 1083.05 517.157 1082.15 517.897C1081.03 518.526 1079.93 518.648 1078.85 518.263C1078.2 518.015 1077.61 517.667 1077.07 517.221C1076.59 516.746 1076.08 516.285 1075.55 515.838C1074.76 514.943 1074.01 514.033 1073.28 513.109C1072.61 512.157 1071.97 511.19 1071.36 510.209C1069.33 507.295 1067.4 504.323 1065.6 501.295C1063.85 498.237 1062.07 495.194 1060.26 492.166C1057.77 487.762 1055.3 483.386 1052.84 479.038C1050.43 474.662 1048.05 470.243 1045.67 465.782C1045.46 465.389 1045.26 465.024 1045.07 464.688C1044.91 464.266 1044.78 463.831 1044.68 463.38C1044.54 462.452 1044.64 461.577 1044.99 460.757C1045.32 459.881 1045.91 459.228 1046.76 458.798C1048.54 457.909 1050.19 458.262 1051.72 459.856C1052.17 460.275 1052.53 460.737 1052.81 461.242C1055.04 464.774 1057.18 468.349 1059.24 471.968C1061.36 475.558 1063.45 479.162 1065.5 482.78C1065.72 483.173 1066.23 484.099 1067.03 485.557C1067.83 487.016 1068.78 488.755 1069.89 490.775C1070.97 492.739 1072.08 494.829 1073.22 497.046C1074.42 499.235 1075.56 501.311 1076.64 503.274C1077.69 505.182 1078.54 506.795 1079.19 508.115Z" fill="#4133EB"/>
<path d="M1072.51 468.649C1071.25 470.21 1069.7 470.702 1067.85 470.125C1067.2 469.877 1066.62 469.417 1066.11 468.745C1065.59 468.073 1065.29 467.328 1065.21 466.512C1065.15 465.61 1065.4 464.735 1065.96 463.885C1066.48 462.978 1067.14 462.325 1067.95 461.924C1069.6 461.093 1071.14 461.291 1072.54 462.52C1073.2 463.05 1073.61 463.737 1073.78 464.581C1073.98 465.34 1073.9 466.13 1073.55 466.95C1073.44 467.289 1073.29 467.614 1073.1 467.926C1072.93 468.153 1072.74 468.394 1072.51 468.649ZM1095.11 501.857C1095.99 502.921 1096.08 503.949 1095.38 504.941C1094.63 505.962 1093.54 506.365 1092.1 506.152C1091.43 505.988 1090.84 505.711 1090.34 505.321C1089.83 504.931 1089.31 504.512 1088.77 504.066C1088.17 503.366 1087.55 502.639 1086.92 501.883C1086.34 501.099 1085.78 500.342 1085.23 499.614C1083.35 496.981 1081.53 494.319 1079.76 491.628C1078.02 488.852 1076.49 486.004 1075.18 483.084C1074.9 482.439 1074.65 481.778 1074.42 481.104C1074.17 480.373 1074.09 479.627 1074.18 478.865C1074.16 478.161 1074.28 477.526 1074.55 476.96C1074.89 476.366 1075.39 475.896 1076.08 475.552C1077.43 474.949 1078.74 475.15 1080.02 476.154C1081.09 476.906 1081.95 477.871 1082.6 479.049L1088.97 490.664C1089.28 491.366 1089.67 492.208 1090.14 493.19C1090.6 494.173 1091.14 495.225 1091.76 496.347C1092.25 497.245 1092.76 498.171 1093.28 499.125C1093.86 500.05 1094.47 500.961 1095.11 501.857Z" fill="#4133EB"/>
<path d="M1121.3 490.997C1121.31 491.561 1121.3 492.068 1121.26 492.52C1121.27 492.942 1121.22 493.394 1121.12 493.873C1121.09 494.747 1121 495.65 1120.86 496.581C1120.68 497.456 1120.4 498.276 1120.02 499.04C1119.17 500.822 1117.96 502.072 1116.39 502.79C1114.81 503.508 1113.06 503.635 1111.12 503.172C1110.33 502.925 1109.57 502.663 1108.83 502.388C1108.13 502.027 1107.46 501.61 1106.83 501.136C1102.58 497.902 1099.27 494.196 1096.9 490.016C1094.56 485.752 1093.33 480.971 1093.19 475.674C1093.17 473.11 1093.64 470.837 1094.59 468.857C1095.65 466.537 1097.02 464.708 1098.69 463.37C1100.43 462.003 1102.64 461.322 1105.34 461.328C1105.69 461.297 1106 461.252 1106.25 461.193C1106.48 461.079 1106.65 460.852 1106.76 460.513C1107.25 458.48 1108.55 457.398 1110.67 457.268C1111.74 457.09 1112.66 457.237 1113.43 457.71C1114.25 458.154 1114.97 458.796 1115.58 459.636L1116.13 460.646C1119.83 467.661 1123.47 474.676 1127.02 481.692C1128.97 485.509 1130.92 489.396 1132.87 493.353C1134.83 497.311 1136.96 501.14 1139.29 504.84C1140.48 506.747 1141.7 508.639 1142.95 510.517C1144.2 512.395 1145.39 514.301 1146.53 516.236C1146.68 516.517 1146.85 516.825 1147.03 517.162C1147.25 517.555 1147.39 517.948 1147.46 518.342C1148.08 519.605 1147.83 520.735 1146.7 521.73C1145.7 522.584 1144.55 522.734 1143.22 522.182C1142.58 521.934 1141.95 521.601 1141.36 521.183C1140.85 520.792 1140.39 520.345 1139.97 519.842C1138.38 518.277 1136.86 516.641 1135.42 514.933C1133.97 513.226 1132.66 511.448 1131.5 509.597C1130.64 508.167 1129.82 506.723 1129.01 505.264C1128.25 503.861 1127.48 502.458 1126.71 501.056C1125.96 499.568 1125.22 498.081 1124.48 496.593C1123.73 495.106 1122.96 493.633 1122.16 492.174C1122.07 492.006 1121.96 491.809 1121.84 491.585C1121.71 491.36 1121.53 491.165 1121.3 490.997ZM1111.71 493.867C1111.96 493.386 1112.07 493.004 1112.07 492.723C1112.11 492.412 1112.15 492.144 1112.17 491.919C1112.14 490.792 1112.06 489.721 1111.94 488.708C1111.85 487.61 1111.76 486.511 1111.67 485.413C1111.39 483.048 1110.97 480.755 1110.41 478.533C1109.85 476.311 1109.21 474.09 1108.5 471.87C1108.19 471.027 1107.89 470.494 1107.62 470.271C1107.33 469.991 1106.73 469.898 1105.83 469.99C1105.19 470.023 1104.67 470.21 1104.28 470.552C1103.85 470.837 1103.49 471.235 1103.18 471.745C1102.5 473.159 1102.24 474.754 1102.41 476.528C1102.52 480.05 1103.39 483.227 1105.02 486.06C1106.65 488.893 1108.88 491.495 1111.71 493.867Z" fill="#4133EB"/>
<path d="M1156.43 470.185C1156.42 470.693 1156.36 471.186 1156.26 471.666C1156.21 472.118 1156.16 472.611 1156.09 473.147C1155.99 473.909 1155.84 474.699 1155.64 475.518C1155.45 476.252 1155.2 476.987 1154.88 477.723C1153.73 480.015 1152.16 481.479 1150.17 482.116C1148.19 482.752 1146.29 482.881 1144.48 482.501C1142.22 481.984 1140.28 481.028 1138.63 479.633C1135.09 476.9 1132.16 473.754 1129.84 470.195C1127.58 466.606 1125.87 462.745 1124.69 458.612C1124.08 456.701 1124.12 454.968 1124.79 453.412C1125.06 452.705 1125.44 452.124 1125.92 451.669C1126.37 451.158 1127 450.914 1127.81 450.935C1128.56 450.844 1129.24 451.008 1129.83 451.426C1130.39 451.787 1130.85 452.277 1131.18 452.894C1131.46 453.399 1131.74 453.904 1132.02 454.409C1132.29 454.914 1132.53 455.405 1132.71 455.883C1133.44 457.737 1134.3 459.561 1135.28 461.357C1136.24 463.096 1137.32 464.806 1138.53 466.487C1139.33 467.664 1140.17 468.812 1141.08 469.932C1142.01 470.967 1143.07 471.902 1144.26 472.738C1144.5 472.905 1144.71 473.016 1144.88 473.071C1145.56 473.516 1146.08 473.723 1146.43 473.692C1146.77 473.661 1147.17 473.32 1147.62 472.668C1148.5 471.223 1148.98 469.698 1149.04 468.091C1149.32 466.595 1149.34 465.115 1149.12 463.651C1148.9 462.188 1148.6 460.767 1148.21 459.389C1147.61 457.112 1146.83 454.892 1145.87 452.73C1144.9 450.568 1143.82 448.463 1142.62 446.416C1141.67 444.677 1141.61 442.986 1142.46 441.344C1143.18 439.986 1144.34 439.187 1145.96 438.948C1147.64 438.681 1149.16 439.316 1150.51 440.855C1151.23 441.638 1151.86 442.507 1152.38 443.46C1152.93 444.329 1153.41 445.27 1153.82 446.281C1155.36 449.227 1156.9 452.173 1158.45 455.12C1159.96 458.01 1161.6 460.871 1163.38 463.702C1164.26 465.048 1165.09 466.492 1165.86 468.036C1166.64 469.579 1167.4 471.095 1168.14 472.582C1168.65 473.903 1168.47 475.102 1167.6 476.18C1167.15 476.691 1166.58 476.977 1165.88 477.04C1165.19 477.102 1164.51 477.009 1163.87 476.76C1163.31 476.54 1162.82 476.318 1162.41 476.096C1162.02 475.789 1161.66 475.468 1161.33 475.133C1160.47 474.351 1159.63 473.555 1158.82 472.744C1158.07 471.905 1157.27 471.052 1156.43 470.185Z" fill="#4133EB"/>
<path d="M1167.08 455.091C1165.63 452.453 1164.62 449.742 1164.04 446.957C1163.48 444.087 1163.19 441.159 1163.15 438.172C1163.17 436.734 1163.33 435.296 1163.63 433.856C1163.94 432.416 1164.43 431.059 1165.12 429.785C1166.05 428.03 1167.27 426.668 1168.78 425.697C1170.44 424.725 1172.18 424.316 1174.02 424.47C1175.85 424.624 1177.54 425.244 1179.09 426.33C1180.6 427.36 1181.71 428.845 1182.41 430.783C1182.63 431.317 1182.81 431.907 1182.94 432.554C1183.08 433.201 1183.14 433.849 1183.13 434.497C1183.16 436.273 1183.01 438.063 1182.69 439.87C1182.39 441.591 1181.79 443.287 1180.88 444.957C1180.31 446.033 1179.63 447.053 1178.84 448.018C1178.09 448.898 1177.12 449.596 1175.94 450.113C1175.54 450.314 1175.32 450.499 1175.26 450.669C1175.27 450.809 1175.38 451.076 1175.59 451.469C1176.03 452.395 1176.58 453.264 1177.24 454.076C1177.91 454.888 1178.63 455.671 1179.41 456.425C1180.15 456.983 1180.7 457.246 1181.05 457.215C1181.39 457.184 1181.82 456.758 1182.31 455.936C1183.09 454.831 1183.65 453.586 1183.98 452.203C1184.25 451.496 1184.55 450.845 1184.88 450.251C1185.18 449.6 1185.48 448.949 1185.78 448.299C1185.89 447.959 1186.11 447.563 1186.44 447.109C1187.15 446.399 1187.91 446.125 1188.73 446.287C1189.57 446.365 1190.24 446.852 1190.73 447.75C1190.95 448.143 1191.14 448.55 1191.29 448.971C1191.45 449.393 1191.58 449.829 1191.68 450.279C1192.11 452.783 1192.07 455.165 1191.56 457.424C1191.04 459.683 1189.82 461.764 1187.87 463.668C1185.07 466.143 1181.82 466.805 1178.12 465.652C1176.19 465.048 1174.55 464.117 1173.2 462.86C1171.85 461.603 1170.59 460.233 1169.41 458.749C1169.02 458.16 1168.62 457.572 1168.22 456.983C1167.86 456.31 1167.47 455.679 1167.08 455.091ZM1175.51 433.166C1175.29 432.773 1175.08 432.451 1174.87 432.199C1174.63 431.891 1174.33 431.752 1173.98 431.783C1173.46 431.759 1173.02 432.158 1172.67 432.978C1172.5 433.205 1172.38 433.445 1172.3 433.7C1172.22 433.954 1172.13 434.251 1172.02 434.59C1171.77 435.86 1171.68 437.157 1171.75 438.481C1171.88 439.776 1172.03 441.057 1172.22 442.324C1172.15 442.86 1172.34 443.154 1172.81 443.207C1172.99 443.262 1173.16 443.246 1173.33 443.16C1173.53 442.989 1173.67 442.847 1173.76 442.734C1175.56 440.042 1176.22 437.063 1175.75 433.798C1175.74 433.657 1175.71 433.53 1175.65 433.418C1175.55 433.25 1175.51 433.166 1175.51 433.166Z" fill="#4133EB"/>
<path d="M1206.05 401.779C1204.79 403.34 1203.23 403.832 1201.39 403.255C1200.74 403.007 1200.16 402.547 1199.64 401.875C1199.13 401.203 1198.83 400.458 1198.75 399.642C1198.69 398.741 1198.94 397.865 1199.49 397.015C1200.02 396.109 1200.68 395.455 1201.48 395.054C1203.14 394.223 1204.67 394.421 1206.08 395.65C1206.73 396.18 1207.15 396.867 1207.32 397.711C1207.51 398.47 1207.44 399.26 1207.08 400.08C1206.98 400.419 1206.83 400.744 1206.64 401.056C1206.47 401.283 1206.27 401.524 1206.05 401.779ZM1228.65 434.987C1229.52 436.051 1229.61 437.079 1228.92 438.071C1228.16 439.092 1227.07 439.495 1225.64 439.282C1224.97 439.118 1224.38 438.841 1223.87 438.451C1223.37 438.061 1222.85 437.642 1222.31 437.196C1221.71 436.496 1221.09 435.769 1220.45 435.013C1219.88 434.229 1219.32 433.472 1218.77 432.744C1216.89 430.111 1215.06 427.449 1213.29 424.758C1211.55 421.982 1210.03 419.135 1208.72 416.215C1208.43 415.569 1208.18 414.909 1207.96 414.234C1207.7 413.503 1207.62 412.757 1207.71 411.996C1207.69 411.291 1207.82 410.656 1208.09 410.09C1208.42 409.496 1208.93 409.026 1209.62 408.683C1210.96 408.08 1212.28 408.28 1213.56 409.284C1214.63 410.036 1215.48 411.001 1216.13 412.179L1222.5 423.794C1222.82 424.496 1223.21 425.338 1223.67 426.32C1224.14 427.303 1224.68 428.355 1225.3 429.477C1225.79 430.375 1226.3 431.301 1226.82 432.255C1227.4 433.18 1228.01 434.091 1228.65 434.987Z" fill="#4133EB"/>
<path d="M1231.31 424.534C1229.71 421.757 1228.73 418.962 1228.35 416.146C1228.03 413.303 1228.1 410.442 1228.56 407.563C1229.06 404.741 1230.39 402.18 1232.55 399.879C1233.49 399.054 1234.53 398.425 1235.68 397.993C1236.8 397.505 1238.04 397.311 1239.41 397.413C1240.05 397.52 1240.62 397.698 1241.12 397.948C1241.68 398.169 1242.16 398.503 1242.55 398.951C1243.6 400.21 1243.95 401.503 1243.58 402.831C1243.19 404.102 1242.25 404.928 1240.78 405.306C1239.92 405.454 1239.26 405.784 1238.81 406.295C1238.36 406.806 1238.02 407.443 1237.78 408.206C1236.36 414.135 1237.69 419.338 1241.75 423.813C1243.04 425.24 1244.21 425.907 1245.25 425.813C1246.3 425.72 1247.39 424.922 1248.53 423.419C1249.34 422.37 1249.84 421.154 1250.03 419.771C1250 419.433 1250.01 419.137 1250.09 418.883C1250.17 418.629 1250.27 418.332 1250.37 417.993C1250.57 417.033 1251.17 416.521 1252.15 416.456C1253.32 416.447 1254.13 416.863 1254.59 417.704C1255.38 418.881 1255.77 420.118 1255.75 421.415C1255.76 422.626 1255.61 423.882 1255.3 425.181C1254.8 426.791 1254.06 428.235 1253.08 429.511C1252.16 430.758 1251.05 431.923 1249.75 433.005C1248.58 433.804 1247.35 434.349 1246.05 434.642C1244.78 434.85 1243.44 434.734 1242.03 434.295C1240.27 433.746 1238.7 432.956 1237.33 431.924C1235.99 430.808 1234.76 429.564 1233.65 428.193C1233.19 427.633 1232.75 427.03 1232.33 426.386C1231.9 425.741 1231.56 425.124 1231.31 424.534Z" fill="#4133EB"/>
<path d="M1248.97 380.287C1247.71 381.848 1246.15 382.34 1244.31 381.763C1243.66 381.515 1243.08 381.055 1242.56 380.383C1242.05 379.71 1241.75 378.966 1241.67 378.15C1241.61 377.248 1241.86 376.372 1242.41 375.522C1242.94 374.616 1243.6 373.963 1244.4 373.561C1246.06 372.73 1247.59 372.929 1249 374.157C1249.65 374.687 1250.06 375.374 1250.24 376.218C1250.43 376.978 1250.36 377.767 1250 378.588C1249.9 378.927 1249.75 379.252 1249.56 379.564C1249.39 379.79 1249.19 380.032 1248.97 380.287ZM1271.57 413.495C1272.44 414.559 1272.53 415.587 1271.84 416.579C1271.08 417.599 1269.99 418.003 1268.56 417.789C1267.89 417.626 1267.3 417.349 1266.79 416.959C1266.29 416.568 1265.76 416.15 1265.23 415.703C1264.62 415.004 1264.01 414.276 1263.37 413.521C1262.8 412.736 1262.24 411.98 1261.69 411.252C1259.81 408.618 1257.98 405.956 1256.21 403.266C1254.47 400.49 1252.95 397.642 1251.64 394.722C1251.35 394.076 1251.1 393.416 1250.88 392.742C1250.62 392.011 1250.54 391.265 1250.63 390.503C1250.61 389.799 1250.74 389.164 1251.01 388.598C1251.34 388.003 1251.85 387.534 1252.54 387.19C1253.88 386.587 1255.2 386.788 1256.48 387.792C1257.55 388.544 1258.4 389.509 1259.05 390.687L1265.42 402.301C1265.74 403.003 1266.13 403.846 1266.59 404.828C1267.06 405.811 1267.6 406.863 1268.21 407.985C1268.71 408.883 1269.22 409.809 1269.74 410.762C1270.32 411.688 1270.93 412.598 1271.57 413.495Z" fill="#4133EB"/>
<path d="M1286.23 376.538L1279.54 364.335C1278.15 361.669 1276.74 359.046 1275.33 356.465C1273.97 353.855 1272.64 351.231 1271.34 348.593C1270.47 346.74 1269.58 344.859 1268.68 342.95C1267.8 340.957 1266.97 338.977 1266.19 337.011C1265.68 335.831 1265.45 334.734 1265.47 333.719C1265.39 331.832 1266.1 330.614 1267.63 330.066C1268.46 329.721 1269.26 329.644 1270.02 329.835C1270.78 330.026 1271.47 330.429 1272.1 331.043C1272.79 331.63 1273.32 332.33 1273.69 333.144C1274.12 333.929 1274.53 334.729 1274.9 335.543C1275.56 337.003 1276.27 338.435 1277.04 339.837C1277.78 341.184 1278.49 342.545 1279.17 343.92C1280.31 346.137 1281.33 348.383 1282.21 350.659C1283.15 352.905 1284.09 355.152 1285.03 357.399C1285.56 358.494 1286.09 359.588 1286.62 360.683C1287.2 361.749 1287.71 362.816 1288.15 363.883C1288.82 365.625 1289.55 367.366 1290.36 369.106C1291.23 370.818 1291.99 372.545 1292.66 374.287C1293.07 375.298 1293.51 376.295 1293.97 377.277C1294.44 378.26 1294.89 379.285 1295.33 380.352C1296.17 382.289 1297.03 384.255 1297.91 386.249C1298.81 388.158 1299.67 390.123 1300.49 392.145C1300.7 392.538 1300.86 392.96 1300.96 393.41C1301.03 393.804 1301.09 394.24 1301.13 394.719C1301.17 395.846 1300.71 396.54 1299.76 396.801C1298.96 397.203 1298.17 397.026 1297.39 396.272C1296.76 395.657 1296.23 395.027 1295.81 394.382C1295.44 393.709 1295.05 393.008 1294.65 392.278C1293.39 389.978 1292.08 387.593 1290.73 385.125C1289.34 382.6 1287.84 379.738 1286.23 376.538ZM1309.39 407.966C1309.55 408.388 1309.67 408.753 1309.77 409.062C1309.9 409.427 1310 409.807 1310.07 410.201C1310.24 411.975 1309.49 413.207 1307.83 413.897C1307.14 414.1 1306.38 414.05 1305.56 413.747C1304.79 413.415 1304.21 412.885 1303.81 412.155C1303.38 411.37 1303.1 410.541 1302.99 409.668C1302.96 408.823 1303.22 408.017 1303.74 407.252C1304.21 406.234 1304.96 405.678 1306 405.585C1307.08 405.548 1307.93 405.977 1308.57 406.874C1308.81 407.041 1308.94 407.223 1308.98 407.42C1309.07 407.588 1309.21 407.77 1309.39 407.966Z" fill="#4133EB"/>
</svg>
