<svg width="1372" height="610" viewBox="0 0 1372 610" fill="none" xmlns="http://www.w3.org/2000/svg">
<path d="M172.091 170.044C167.842 160.41 152.658 133.209 155.22 122.668C160.086 102.637 176.81 134.103 179.296 139.053C184.937 150.288 197.766 176.053 195.964 188.592C192.351 213.739 175.546 177.878 172.091 170.044Z" fill="#222221"/>
<path d="M657.544 590.116C668.062 589.63 698.91 585.288 707.816 591.481C724.74 603.25 689.359 607.489 683.845 608.021C671.331 609.227 642.674 611.891 631.63 605.685C609.482 593.239 648.991 590.51 657.544 590.116Z" fill="#222221"/>
<path d="M1163.54 349.116C1174.06 348.63 1204.91 344.288 1213.82 350.481C1230.74 362.25 1195.36 366.489 1189.85 367.021C1177.33 368.227 1148.67 370.891 1137.63 364.685C1115.48 352.239 1154.99 349.51 1163.54 349.116Z" fill="#222221"/>
<path d="M302.15 502.498C292.761 497.73 263.788 486.286 259.097 476.505C250.183 457.918 283.05 471.689 288.108 473.947C299.587 479.072 325.828 490.895 332.371 501.742C345.494 523.496 309.783 506.375 302.15 502.498Z" fill="#222221"/>
<path d="M743.655 574.582C752.865 569.478 778.579 551.893 789.308 553.488C809.698 556.52 779.876 576.026 775.172 578.95C764.494 585.586 739.998 600.696 727.347 600.037C701.976 598.717 736.167 578.732 743.655 574.582Z" fill="#222221"/>
<path d="M981.655 419.582C990.865 414.478 1016.58 396.893 1027.31 398.488C1047.7 401.52 1017.88 421.026 1013.17 423.95C1002.49 430.586 977.997 445.696 965.347 445.037C939.976 443.717 974.167 423.732 981.655 419.582Z" fill="#222221"/>
<path d="M122.584 93.3947C113.872 86.008 86.3983 66.4243 83.3733 55.4638C77.6246 34.6357 108.648 57.6253 113.397 61.2999C124.176 69.64 148.797 88.8092 153.519 101.35C162.988 126.501 129.667 99.4006 122.584 93.3947Z" fill="#222221"/>
<path d="M179.404 363.855C178.858 352.446 174.425 318.999 180.373 309.309C191.675 290.893 196.04 329.259 196.595 335.238C197.855 348.809 200.644 379.887 194.699 391.896C182.776 415.982 179.848 373.131 179.404 363.855Z" fill="#222221"/>
<path d="M561.107 583.156C572.396 584.895 606.055 587.216 614.367 594.975C630.161 609.72 591.695 606.353 585.725 605.705C572.175 604.235 541.165 600.776 530.581 592.557C509.354 576.074 551.929 581.743 561.107 583.156Z" fill="#222221"/>
<path d="M391.557 544.53C381.3 539.504 349.864 527.252 344.245 517.368C333.566 498.584 369.278 513.268 374.783 515.666C387.278 521.11 415.846 533.659 423.498 544.66C438.844 566.723 399.896 548.616 391.557 544.53Z" fill="#222221"/>
<path d="M55.2444 41.5709C47.3955 38.1324 39.846 32.3494 32.6059 27.689C25.1972 22.9195 11.1761 15.8642 5.58051 10.0298C-10.4581 -6.69241 19.545 1.3122 29.0162 6.93364C41.9751 14.6258 60.4575 23.2151 72.0122 32.6387C90.4055 47.6396 67.9709 48.27 55.2444 41.5709C57.2186 42.6102 48.2349 38.5 55.2444 41.5709Z" fill="#222221"/>
<path d="M493.274 587.057C484.984 584.888 476.624 580.355 468.745 576.883C460.682 573.33 445.73 568.553 439.292 563.664C420.837 549.654 451.722 552.872 461.956 556.944C475.957 562.517 495.555 568.112 508.44 575.615C528.952 587.557 506.891 591.686 493.274 587.057C495.386 587.775 485.871 585.12 493.274 587.057Z" fill="#222221"/>
<path d="M937.059 464.215C929.492 468.239 920.052 470.054 911.771 472.531C903.298 475.064 888.984 481.496 880.634 481.555C856.701 481.726 881.133 462.072 891.549 458.438C905.802 453.466 924.049 444.398 938.999 442.096C962.797 438.431 950.309 458.622 937.059 464.215C939.114 463.347 930.302 467.809 937.059 464.215Z" fill="#222221"/>
<path d="M179.015 261.595C179.751 250.316 178.877 216.662 186.362 208.41C200.585 192.729 200.817 231.183 200.719 237.15C200.497 250.694 199.886 281.689 192.135 292.211C176.592 313.313 178.416 270.766 179.015 261.595Z" fill="#222221"/>
<path d="M1069.05 374.373C1079.35 369.716 1108.64 353.114 1119.44 355.838C1139.97 361.012 1106.14 379.306 1100.83 382.027C1088.78 388.201 1061.14 402.243 1048.2 400.353C1022.27 396.563 1060.67 378.159 1069.05 374.373Z" fill="#222221"/>
<path d="M819.922 516.788C827.6 508.492 848.122 481.805 859.133 480.111C880.058 476.893 856.013 506.904 852.178 511.477C843.474 521.855 823.473 545.542 810.825 548.831C785.461 555.427 813.68 523.534 819.922 516.788Z" fill="#222221"/>
<path d="M225.033 423.276C233.692 432.152 255.695 452.264 253.37 465.131C250.748 479.646 232.641 459.532 227.437 453.777C219.007 444.454 192.85 424.851 192.563 411.618C192.09 389.798 219.299 417.398 225.033 423.276Z" fill="#222221"/>
<path d="M1284.28 367.012C1272.54 366.378 1207.82 367.071 1227.8 350.535C1243.49 337.552 1286.36 350.703 1306.92 345.888C1300.29 337.272 1289.67 330.865 1287.28 320.69C1284.47 308.774 1291.2 305.763 1304.83 312.601C1315.45 317.929 1323.62 327.405 1334.77 333.233C1347.12 339.689 1365.87 346.547 1370.69 357.319C1375.24 367.497 1367.32 372.552 1356.98 378.878C1344.59 386.459 1334.09 398.763 1320.4 404.92C1307.37 410.776 1298.1 408.311 1299.44 397.266C1300.6 387.666 1314.94 376.783 1322.07 368.964C1319.51 368.371 1284.53 365.354 1284.28 367.012C1284.32 366.73 1271.17 366.304 1284.28 367.012Z" fill="#222221"/>
</svg>
